<svg width="175" height="175" viewBox="0 0 175 175" fill="none" xmlns="http://www.w3.org/2000/svg">
<g clip-path="url(#clip0_2140_232)">
<path d="M92.4372 1.84599C105.68 1.45999 121.147 10.0869 132.674 18.2049C144.201 26.3228 155.55 37.8456 161.598 50.554C167.647 63.2623 169.884 80.1879 168.965 94.4548C168.046 108.722 163.712 124.165 156.084 136.155C148.455 148.146 135.731 160.144 123.194 166.398C110.657 172.653 94.7278 174.686 80.8633 173.683C66.9987 172.681 51.592 168.228 40.0069 160.381C28.4219 152.535 17.3428 139.667 11.3529 126.605C5.36298 113.543 3.17424 96.2403 4.06759 82.007C4.96094 67.7737 8.90488 52.8366 16.713 41.205C24.5211 29.5735 37.6977 18.4068 50.9162 12.2175C64.1348 6.02818 87.5274 5.02359 96.0242 4.06916C104.521 3.11472 101.819 4.95853 101.897 6.4909M85.8415 2.23674C99.3773 1.58142 117.953 7.58386 130.005 15.2517C142.057 22.9195 151.48 35.9636 158.155 48.2437C164.83 60.5239 170.069 74.994 170.057 88.9327C170.046 102.871 165.64 119.585 158.085 131.875C150.53 144.166 136.613 155.939 124.727 162.676C112.84 169.413 100.265 172.119 86.7637 172.297C73.2622 172.475 56.1699 170.667 43.7177 163.746C31.2655 156.824 18.4307 143.643 12.0506 130.769C5.67045 117.895 5.31057 101.337 5.4368 86.5013C5.56302 71.6653 5.62062 53.6926 12.8079 41.7533C19.9952 29.814 36.0352 21.6884 48.5607 14.8657C61.0861 8.043 81.1799 2.88287 87.9608 0.817191C94.7417 -1.24849 89.0322 1.08946 89.2461 2.47159" stroke="white" stroke-width="3.35538"/>
<path d="M143.873 87.92C144.332 88.381 144.704 88.95 145.141 89.467C144.774 89.007 144.485 88.615 143.873 87.92ZM143.873 87.92C143.118 87.054 142.703 86.38 141.972 85.6C143.047 86.878 143.476 87.313 143.873 87.92ZM36.2711 85.599C37.8151 87.804 38.9141 88.692 40.0751 90.24C38.6281 88.456 37.1001 86.654 36.2711 85.599ZM36.2711 85.599C35.4781 84.412 34.4671 83.077 33.1021 81.732C34.5721 83.442 35.3181 84.473 36.2711 85.599ZM146.357 88.47C145.37 87.269 144.601 86.13 143.822 85.376C144.752 86.619 145.675 87.608 146.357 88.47ZM143.925 90.463C142.159 88.583 140.756 86.59 139.488 85.049C141.723 87.693 142.704 88.962 143.925 90.463ZM141.441 89.913C140.421 88.354 139.603 87.205 137.638 85.272C139.858 87.901 140.489 88.808 141.441 89.913ZM139.591 90.136C138.537 88.895 137.584 88.286 135.788 85.495C137.108 87.172 138.232 88.556 139.591 90.136ZM137.742 90.359C136.749 88.718 135.724 87.8 133.305 84.945C135.273 87.384 136.562 88.88 137.742 90.359ZM135.892 90.582C134.757 89.108 132.931 87.466 131.455 85.168C133.399 87.866 134.779 89.093 135.892 90.582ZM133.408 90.032C132.179 88.458 130.383 86.798 129.605 85.391C130.554 86.504 132.001 88.377 133.408 90.032ZM131.558 90.255C130.283 89.095 129.521 87.596 127.755 85.614C130.017 88.159 130.77 89.201 131.558 90.255ZM129.708 90.478C128.157 88.544 126.508 86.775 125.271 85.064C126.523 86.528 128.106 88.581 129.708 90.478ZM127.225 89.928C126.298 88.91 125.11 87.3 123.421 85.287C125.454 87.8 126.492 88.858 127.225 89.928ZM125.375 90.151C124.214 88.772 123.693 88.011 121.572 85.51C123.504 87.924 124.632 89.01 125.375 90.151ZM123.525 90.374C122.443 89.068 121.157 86.976 119.088 84.96C119.803 85.99 121.61 88.221 123.525 90.374ZM121.675 90.597C120.099 88.645 118.816 87.359 117.238 85.183C119.437 88.029 120.72 89.131 121.675 90.597ZM119.191 90.047C118.143 88.317 116.768 87.093 115.388 85.406C116.887 87.172 117.836 88.579 119.191 90.047ZM117.341 90.27C116.757 89.603 116.023 88.227 113.538 85.629C114.201 86.6 115.817 88.293 117.341 90.27ZM115.492 90.493C114.276 88.871 112.995 87.904 111.055 85.079C112.74 87.288 114.294 88.763 115.492 90.493ZM113.008 89.943C111.881 88.361 110.648 87.019 109.205 85.302C110.396 86.817 111.59 88.329 113.008 89.943ZM111.158 90.166C110.299 88.8 109.114 87.385 107.355 85.525C108.151 86.473 109.807 88.278 111.158 90.166ZM109.308 90.389C108.151 89.071 107.081 87.905 104.871 84.975C106.481 86.98 108.005 88.65 109.308 90.389ZM107.458 90.612C105.873 89.153 104.556 86.794 103.021 85.198C105.233 87.818 106.288 89.262 107.458 90.612ZM104.975 90.062C103.92 88.6 102.834 87.131 101.171 85.421C103.069 87.779 103.995 88.812 104.975 90.062ZM103.125 90.285C102.053 89.434 101.318 88.182 99.3221 85.644C101.21 88.042 102.227 89.098 103.125 90.285ZM101.275 90.508C100.046 88.851 98.0371 86.543 96.8381 85.094C99.0731 87.902 100.3 89.196 101.275 90.508ZM98.7911 89.958C97.6031 88.547 96.1841 86.964 94.9881 85.317C96.7771 87.314 97.6791 88.631 98.7911 89.958ZM96.9411 90.181C96.4341 89.473 95.4991 88.241 93.1381 85.54C94.2341 87.033 95.6691 88.702 96.9411 90.181ZM95.0921 90.404C93.8541 88.808 92.3611 87.103 90.6541 84.99C92.9901 87.755 93.9701 88.927 95.0921 90.404ZM93.2421 90.627C92.2611 89.149 90.3561 87.262 88.8051 85.213C89.5691 86.314 91.6161 88.529 93.2421 90.627ZM90.7581 90.077C89.9391 88.66 88.5581 87.701 86.9551 85.436C88.6371 87.445 89.7671 88.904 90.7581 90.077ZM88.9081 90.3C87.8061 88.915 86.5441 87.409 84.4711 84.886C86.2941 86.902 87.7041 88.634 88.9081 90.3ZM87.0581 90.523C86.0541 88.798 84.4671 87.56 82.6211 85.109C83.8041 86.605 85.3291 88.397 87.0581 90.523ZM84.5751 89.972C83.4991 88.541 82.0781 86.696 80.7711 85.332C82.2951 87.413 83.5591 88.606 84.5751 89.972ZM82.7251 90.196C81.2381 88.754 80.1721 86.773 78.9211 85.555C80.5161 87.21 81.4821 88.878 82.7251 90.196ZM80.8751 90.419C79.8411 89.361 78.2841 87.433 76.4381 85.005C78.6201 87.82 79.8721 88.929 80.8751 90.419ZM78.3911 89.868C77.3271 88.289 75.4291 86.74 74.5881 85.228C76.4941 87.552 77.4621 88.591 78.3911 89.868ZM76.5411 90.091C75.3391 88.46 73.8771 87.143 72.7381 85.451C74.1311 87.089 75.2171 88.527 76.5411 90.091ZM74.6911 90.314C73.1511 88.617 72.0291 87.256 70.2541 84.9C72.1811 87.282 73.3251 88.746 74.6911 90.314ZM72.8421 90.538C71.5041 88.928 70.8351 88.14 68.4041 85.123C70.1791 87.283 71.5101 88.801 72.8421 90.538ZM70.3581 89.987C69.4221 88.687 68.6671 87.778 66.5551 85.347C68.6231 87.865 69.6781 88.994 70.3581 89.987ZM68.5081 90.21C67.1631 88.418 65.4391 86.664 64.7051 85.57C66.6391 87.73 67.5821 88.867 68.5081 90.21ZM66.6581 90.433C65.7651 88.934 64.8541 87.863 62.2211 85.019C64.1441 87.673 65.3881 88.828 66.6581 90.433ZM64.1741 89.883C63.5511 88.822 62.3461 88.05 60.3711 85.242C62.1881 87.227 63.0551 88.545 64.1741 89.883ZM49.5951 72.094C48.8131 71.235 47.9081 70.211 47.0601 69C47.5431 69.65 48.6591 70.94 49.5951 72.094ZM62.3251 90.106C61.1501 88.416 59.9431 87.331 58.5211 85.466C60.1001 87.569 61.0801 88.694 62.3251 90.106ZM48.3801 73.09C47.2981 71.546 45.8731 70.148 45.2101 69.223C46.2241 70.534 47.2521 71.91 48.3801 73.09ZM60.4751 90.329C59.2501 88.361 57.4761 86.97 56.0381 84.915C58.6131 87.874 59.4741 89.292 60.4751 90.329ZM47.7971 74.86C46.7811 73.401 45.8361 72.136 44.6281 70.993C46.1171 72.732 47.0161 73.823 47.7971 74.86ZM58.6251 90.552C56.9121 88.945 55.4391 87.082 54.1881 85.138C55.4891 86.784 57.0571 88.603 58.6251 90.552ZM46.5811 75.857C45.6181 75.073 45.1001 73.833 43.4121 71.99C44.7981 73.806 45.8131 74.775 46.5811 75.857ZM56.1411 90.002C55.3391 88.799 53.7961 87.56 52.3381 85.361C53.2321 86.608 54.8451 88.431 56.1411 90.002ZM45.3651 76.854C44.5061 75.536 43.4721 74.613 42.1961 72.986C43.1891 74.102 44.2121 75.433 45.3651 76.854ZM54.2911 90.225C53.4731 88.992 52.1071 87.611 50.4881 85.585C51.6021 86.859 53.0081 88.661 54.2911 90.225ZM44.1491 77.85C43.3401 76.94 42.7291 76.159 40.9801 73.983C42.4671 75.807 43.3551 76.763 44.1491 77.85ZM52.4411 90.448C51.6571 89.396 50.4101 88.042 48.0041 85.034C49.8881 87.142 51.2041 88.664 52.4411 90.448ZM42.9331 78.847C41.9261 77.802 41.3651 76.921 39.7641 74.979C41.6751 77.164 42.2571 78.133 42.9331 78.847ZM49.9581 89.898C49.0371 88.712 47.9311 87.254 46.1551 85.257C47.8341 87.461 48.8371 88.575 49.9581 89.898ZM41.7171 79.843C41.0061 78.85 40.1181 77.827 38.5481 75.976C40.1831 77.864 40.7861 78.8 41.7171 79.843ZM48.1081 90.121C46.8471 88.604 46.0621 87.397 44.3051 85.48C45.1961 86.442 46.5511 88.482 48.1081 90.121ZM41.1351 81.613C40.1861 80.602 39.2511 79.457 37.9661 77.746C38.6791 78.804 39.9621 80.041 41.1351 81.613ZM46.2581 90.344C45.3971 89.343 44.4401 87.701 41.8211 84.93C43.7401 87.424 44.9101 88.711 46.2581 90.344ZM39.9191 82.61C39.1361 81.382 38.5081 80.446 36.7501 78.743C38.4311 80.797 39.1171 81.792 39.9191 82.61ZM44.4081 90.567C43.5951 89.126 42.2571 88.147 39.9711 85.153C40.8421 86.267 42.7901 88.404 44.4081 90.567ZM38.7031 83.606C37.8311 82.325 36.8561 81.48 35.5341 79.739C36.4051 80.688 37.4541 82.18 38.7031 83.606ZM41.9241 90.017C40.7921 88.272 38.8681 86.385 38.1211 85.376C40.0921 87.597 40.9451 88.855 41.9241 90.017ZM37.4871 84.603C36.4511 83.62 35.8971 82.36 34.3181 80.736C36.0791 82.903 36.6551 83.634 37.4871 84.603ZM49.0001 103.612C46.7731 99.911 43.7921 97.147 38.2251 90.463C44.1121 97.816 46.3061 100.904 49.0001 103.612ZM37.5911 89.69C36.9991 88.664 36.2701 88.085 35.0551 86.596C36.0351 87.776 36.8741 88.759 37.5911 89.69ZM33.7881 85.049C33.0921 84.219 32.4841 83.381 31.8861 82.729C32.3881 83.337 33.1391 84.184 33.7881 85.049ZM48.4181 105.382C44.3071 102.298 42.1371 98.072 35.7411 89.913C39.5521 94.359 44.0761 99.617 48.4181 105.382ZM31.3041 84.499C31.1101 84.261 30.9381 84.149 30.6701 83.725C30.9331 84.051 31.1361 84.264 31.3041 84.499ZM45.9351 104.831C42.2731 98.614 37.4301 94.662 33.8911 90.136C40.6651 97.753 42.9801 101.589 45.9351 104.831ZM31.3561 87.042C31.0191 86.477 30.5271 86.048 30.0881 85.495C30.7531 86.329 31.0701 86.658 31.3561 87.042ZM34.5771 93.453C33.6761 92.071 31.9791 90.353 30.1401 88.039C31.1071 89.243 32.7761 91.263 34.5771 93.453Z" stroke="white" stroke-width="0.528" stroke-linecap="round"/>
<path d="M144.679 84.4931C145.16 85.4441 147.216 85.8411 147.179 86.9931C146.486 88.3181 145.231 89.4941 144.679 89.4931M144.679 84.4931C144.703 86.0571 144.611 88.0021 144.679 89.4931M144.679 84.4931C91.6191 84.8621 62.3371 83.9721 31.6791 84.4931C31.5511 85.8031 31.4451 87.6391 31.6791 89.4931C56.8481 88.5311 100.425 89.7671 144.679 89.4931M144.679 84.4931C144.685 86.2221 144.739 87.9801 144.679 89.4931M29.9111 88.7611C28.9541 86.8971 28.4631 86.9481 29.9111 85.2251C34.0281 80.0241 39.9421 76.0821 45.8211 69.3151C46.2301 68.9731 48.3591 68.8721 49.3571 69.3151C50.9641 69.8141 50.0551 72.7631 49.3571 72.8511C46.1481 76.0441 43.2831 78.3651 35.2151 86.9931C40.3461 90.4771 43.0981 94.4151 49.3571 101.135C50.0661 101.405 51.2551 103.262 49.3571 104.671C49.1541 105 45.9821 105.096 45.8211 104.671C38.9171 97.9461 34.0051 91.2031 29.9111 88.7611Z" stroke="white" stroke-linecap="round"/>
</g>
<defs>
<clipPath id="clip0_2140_232">
<rect width="175" height="175" rx="87.5" fill="white"/>
</clipPath>
</defs>
</svg>
