<svg width="175" height="175" viewBox="0 0 175 175" fill="none" xmlns="http://www.w3.org/2000/svg">
<g clip-path="url(#clip0_2140_222)">
<path d="M92.4372 1.84599C105.681 1.45999 121.147 10.0869 132.674 18.2049C144.201 26.3228 155.55 37.8456 161.598 50.554C167.647 63.2623 169.884 80.1879 168.965 94.4548C168.046 108.722 163.712 124.165 156.084 136.155C148.455 148.146 135.731 160.144 123.194 166.398C110.658 172.653 94.7278 174.686 80.8633 173.683C66.9987 172.681 51.592 168.228 40.0069 160.381C28.4219 152.535 17.3428 139.667 11.3529 126.605C5.36298 113.543 3.17424 96.2403 4.06759 82.007C4.96095 67.7737 8.90488 52.8366 16.713 41.205C24.5211 29.5735 37.6977 18.4068 50.9162 12.2175C64.1348 6.02818 87.5274 5.02359 96.0242 4.06916C104.521 3.11472 101.819 4.95853 101.897 6.4909M85.8415 2.23674C99.3773 1.58142 117.953 7.58386 130.005 15.2517C142.057 22.9195 151.48 35.9636 158.155 48.2437C164.83 60.5239 170.069 74.994 170.057 88.9327C170.046 102.871 165.64 119.585 158.085 131.875C150.53 144.166 136.613 155.939 124.727 162.676C112.84 169.413 100.265 172.119 86.7637 172.297C73.2622 172.475 56.1699 170.667 43.7177 163.746C31.2655 156.824 18.4307 143.643 12.0506 130.769C5.67046 117.895 5.31058 101.337 5.4368 86.5013C5.56302 71.6653 5.62063 53.6926 12.8079 41.7533C19.9952 29.814 36.0352 21.6884 48.5607 14.8657C61.0861 8.043 81.1799 2.88287 87.9608 0.817191C94.7417 -1.24849 89.0322 1.08946 89.2461 2.47159" stroke="white" stroke-width="3.35538"/>
<path d="M31.3065 87.92C30.8475 88.381 30.4755 88.95 30.0385 89.467C30.4055 89.007 30.6945 88.615 31.3065 87.92ZM31.3065 87.92C32.0615 87.054 32.4765 86.38 33.2075 85.6C32.1325 86.878 31.7035 87.313 31.3065 87.92ZM138.908 85.599C137.364 87.804 136.265 88.692 135.104 90.24C136.551 88.456 138.079 86.654 138.908 85.599ZM138.908 85.599C139.701 84.412 140.712 83.077 142.077 81.732C140.607 83.442 139.861 84.473 138.908 85.599ZM28.8225 88.47C29.8095 87.269 30.5785 86.13 31.3575 85.376C30.4275 86.619 29.5045 87.608 28.8225 88.47ZM31.2545 90.463C33.0205 88.583 34.4235 86.59 35.6915 85.049C33.4565 87.693 32.4755 88.962 31.2545 90.463ZM33.7385 89.913C34.7585 88.354 35.5765 87.205 37.5415 85.272C35.3215 87.901 34.6905 88.808 33.7385 89.913ZM35.5885 90.136C36.6425 88.895 37.5955 88.286 39.3915 85.495C38.0715 87.172 36.9475 88.556 35.5885 90.136ZM37.4375 90.359C38.4305 88.718 39.4555 87.8 41.8745 84.945C39.9065 87.384 38.6175 88.88 37.4375 90.359ZM39.2875 90.582C40.4225 89.108 42.2485 87.466 43.7245 85.168C41.7805 87.866 40.4005 89.093 39.2875 90.582ZM41.7715 90.032C43.0005 88.458 44.7965 86.798 45.5745 85.391C44.6255 86.504 43.1785 88.377 41.7715 90.032ZM43.6215 90.255C44.8965 89.095 45.6585 87.596 47.4245 85.614C45.1625 88.159 44.4095 89.201 43.6215 90.255ZM45.4715 90.478C47.0225 88.544 48.6715 86.775 49.9085 85.064C48.6565 86.528 47.0735 88.581 45.4715 90.478ZM47.9545 89.928C48.8815 88.91 50.0695 87.3 51.7585 85.287C49.7255 87.8 48.6875 88.858 47.9545 89.928ZM49.8045 90.151C50.9655 88.772 51.4865 88.011 53.6075 85.51C51.6755 87.924 50.5475 89.01 49.8045 90.151ZM51.6545 90.374C52.7365 89.068 54.0225 86.976 56.0915 84.96C55.3765 85.99 53.5695 88.221 51.6545 90.374ZM53.5045 90.597C55.0805 88.645 56.3635 87.359 57.9415 85.183C55.7425 88.029 54.4595 89.131 53.5045 90.597ZM55.9885 90.047C57.0365 88.317 58.4115 87.093 59.7915 85.406C58.2925 87.172 57.3435 88.579 55.9885 90.047ZM57.8385 90.27C58.4225 89.603 59.1565 88.227 61.6415 85.629C60.9785 86.6 59.3625 88.293 57.8385 90.27ZM59.6875 90.493C60.9035 88.871 62.1845 87.904 64.1245 85.079C62.4395 87.288 60.8855 88.763 59.6875 90.493ZM62.1715 89.943C63.2985 88.361 64.5315 87.019 65.9745 85.302C64.7835 86.817 63.5895 88.329 62.1715 89.943ZM64.0215 90.166C64.8805 88.8 66.0655 87.385 67.8245 85.525C67.0285 86.473 65.3725 88.278 64.0215 90.166ZM65.8715 90.389C67.0285 89.071 68.0985 87.905 70.3085 84.975C68.6985 86.98 67.1745 88.65 65.8715 90.389ZM67.7215 90.612C69.3065 89.153 70.6235 86.794 72.1585 85.198C69.9465 87.818 68.8915 89.262 67.7215 90.612ZM70.2045 90.062C71.2595 88.6 72.3455 87.131 74.0085 85.421C72.1105 87.779 71.1845 88.812 70.2045 90.062ZM72.0545 90.285C73.1265 89.434 73.8615 88.182 75.8575 85.644C73.9695 88.042 72.9525 89.098 72.0545 90.285ZM73.9045 90.508C75.1335 88.851 77.1425 86.543 78.3415 85.094C76.1065 87.902 74.8795 89.196 73.9045 90.508ZM76.3885 89.958C77.5765 88.547 78.9955 86.964 80.1915 85.317C78.4025 87.314 77.5005 88.631 76.3885 89.958ZM78.2385 90.181C78.7455 89.473 79.6805 88.241 82.0415 85.54C80.9455 87.033 79.5105 88.702 78.2385 90.181ZM80.0875 90.404C81.3255 88.808 82.8185 87.103 84.5255 84.99C82.1895 87.755 81.2095 88.927 80.0875 90.404ZM81.9375 90.627C82.9185 89.149 84.8235 87.262 86.3745 85.213C85.6105 86.314 83.5635 88.529 81.9375 90.627ZM84.4215 90.077C85.2405 88.66 86.6215 87.701 88.2245 85.436C86.5425 87.445 85.4125 88.904 84.4215 90.077ZM86.2715 90.3C87.3735 88.915 88.6355 87.409 90.7085 84.886C88.8855 86.902 87.4755 88.634 86.2715 90.3ZM88.1215 90.523C89.1255 88.798 90.7125 87.56 92.5585 85.109C91.3755 86.605 89.8505 88.397 88.1215 90.523ZM90.6045 89.972C91.6805 88.541 93.1015 86.696 94.4085 85.332C92.8845 87.413 91.6205 88.606 90.6045 89.972ZM92.4545 90.196C93.9415 88.754 95.0075 86.773 96.2585 85.555C94.6635 87.21 93.6975 88.878 92.4545 90.196ZM94.3045 90.419C95.3385 89.361 96.8955 87.433 98.7415 85.005C96.5595 87.82 95.3075 88.929 94.3045 90.419ZM96.7885 89.868C97.8525 88.289 99.7505 86.74 100.591 85.228C98.6855 87.552 97.7175 88.591 96.7885 89.868ZM98.6385 90.091C99.8405 88.46 101.302 87.143 102.441 85.451C101.048 87.089 99.9625 88.527 98.6385 90.091ZM100.488 90.314C102.028 88.617 103.15 87.256 104.925 84.9C102.998 87.282 101.854 88.746 100.488 90.314ZM102.337 90.538C103.675 88.928 104.344 88.14 106.775 85.123C105 87.283 103.669 88.801 102.337 90.538ZM104.821 89.987C105.757 88.687 106.512 87.778 108.624 85.347C106.556 87.865 105.501 88.994 104.821 89.987ZM106.671 90.21C108.016 88.418 109.74 86.664 110.474 85.57C108.54 87.73 107.597 88.867 106.671 90.21ZM108.521 90.433C109.414 88.934 110.325 87.863 112.958 85.019C111.035 87.673 109.791 88.828 108.521 90.433ZM111.005 89.883C111.628 88.822 112.833 88.05 114.808 85.242C112.991 87.227 112.124 88.545 111.005 89.883ZM125.584 72.094C126.366 71.235 127.271 70.211 128.119 69C127.636 69.65 126.52 70.94 125.584 72.094ZM112.854 90.106C114.029 88.416 115.236 87.331 116.658 85.466C115.079 87.569 114.099 88.694 112.854 90.106ZM126.799 73.09C127.881 71.546 129.306 70.148 129.969 69.223C128.955 70.534 127.927 71.91 126.799 73.09ZM114.704 90.329C115.929 88.361 117.703 86.97 119.141 84.915C116.566 87.874 115.705 89.292 114.704 90.329ZM127.382 74.86C128.398 73.401 129.343 72.136 130.551 70.993C129.062 72.732 128.163 73.823 127.382 74.86ZM116.554 90.552C118.267 88.945 119.74 87.082 120.991 85.138C119.69 86.784 118.122 88.603 116.554 90.552ZM128.598 75.857C129.561 75.073 130.079 73.833 131.767 71.99C130.381 73.806 129.366 74.775 128.598 75.857ZM119.038 90.002C119.84 88.799 121.383 87.56 122.841 85.361C121.947 86.608 120.334 88.431 119.038 90.002ZM129.814 76.854C130.673 75.536 131.707 74.613 132.983 72.986C131.99 74.102 130.967 75.433 129.814 76.854ZM120.888 90.225C121.706 88.992 123.072 87.611 124.691 85.585C123.577 86.859 122.171 88.661 120.888 90.225ZM131.03 77.85C131.839 76.94 132.45 76.159 134.199 73.983C132.712 75.807 131.824 76.763 131.03 77.85ZM122.738 90.448C123.522 89.396 124.769 88.042 127.175 85.034C125.291 87.142 123.975 88.664 122.738 90.448ZM132.246 78.847C133.253 77.802 133.814 76.921 135.415 74.979C133.504 77.164 132.922 78.133 132.246 78.847ZM125.221 89.898C126.142 88.712 127.248 87.254 129.024 85.257C127.345 87.461 126.342 88.575 125.221 89.898ZM133.462 79.843C134.173 78.85 135.061 77.827 136.631 75.976C134.996 77.864 134.393 78.8 133.462 79.843ZM127.071 90.121C128.332 88.604 129.117 87.397 130.874 85.48C129.983 86.442 128.628 88.482 127.071 90.121ZM134.044 81.613C134.993 80.602 135.928 79.457 137.213 77.746C136.5 78.804 135.217 80.041 134.044 81.613ZM128.921 90.344C129.782 89.343 130.739 87.701 133.358 84.93C131.439 87.424 130.269 88.711 128.921 90.344ZM135.26 82.61C136.043 81.382 136.671 80.446 138.429 78.743C136.748 80.797 136.062 81.792 135.26 82.61ZM130.771 90.567C131.584 89.126 132.922 88.147 135.208 85.153C134.337 86.267 132.389 88.404 130.771 90.567ZM136.476 83.606C137.348 82.325 138.323 81.48 139.645 79.739C138.774 80.688 137.725 82.18 136.476 83.606ZM133.255 90.017C134.387 88.272 136.311 86.385 137.058 85.376C135.087 87.597 134.234 88.855 133.255 90.017ZM137.692 84.603C138.728 83.62 139.282 82.36 140.861 80.736C139.1 82.903 138.524 83.634 137.692 84.603ZM126.179 103.612C128.406 99.911 131.387 97.147 136.954 90.463C131.067 97.816 128.873 100.904 126.179 103.612ZM137.588 89.69C138.18 88.664 138.909 88.085 140.124 86.596C139.144 87.776 138.305 88.759 137.588 89.69ZM141.391 85.049C142.087 84.219 142.695 83.381 143.293 82.729C142.791 83.337 142.04 84.184 141.391 85.049ZM126.761 105.382C130.872 102.298 133.042 98.072 139.438 89.913C135.627 94.359 131.103 99.617 126.761 105.382ZM143.875 84.499C144.069 84.261 144.241 84.149 144.509 83.725C144.246 84.051 144.043 84.264 143.875 84.499ZM129.244 104.831C132.906 98.614 137.749 94.662 141.288 90.136C134.514 97.753 132.199 101.589 129.244 104.831ZM143.823 87.042C144.16 86.477 144.652 86.048 145.091 85.495C144.426 86.329 144.109 86.658 143.823 87.042ZM140.602 93.453C141.503 92.071 143.2 90.353 145.039 88.039C144.072 89.243 142.403 91.263 140.602 93.453Z" stroke="white" stroke-width="0.528" stroke-linecap="round"/>
<path d="M30.5005 84.4931C30.0195 85.4441 27.9635 85.8411 28.0005 86.9931C28.6935 88.3181 29.9485 89.4941 30.5005 89.4931M30.5005 84.4931C30.4765 86.0571 30.5685 88.0021 30.5005 89.4931M30.5005 84.4931C83.5605 84.8621 112.842 83.9721 143.5 84.4931C143.628 85.8031 143.734 87.6391 143.5 89.4931C118.331 88.5311 74.7545 89.7671 30.5005 89.4931M30.5005 84.4931C30.4945 86.2221 30.4405 87.9801 30.5005 89.4931M145.268 88.7611C146.225 86.8971 146.716 86.9481 145.268 85.2251C141.151 80.0241 135.237 76.0821 129.358 69.3151C128.949 68.9731 126.82 68.8721 125.822 69.3151C124.215 69.8141 125.124 72.7631 125.822 72.8511C129.031 76.0441 131.896 78.3651 139.964 86.9931C134.833 90.4771 132.081 94.4151 125.822 101.135C125.113 101.405 123.924 103.262 125.822 104.671C126.025 105 129.197 105.096 129.358 104.671C136.262 97.9461 141.174 91.2031 145.268 88.7611Z" stroke="white" stroke-linecap="round"/>
</g>
<defs>
<clipPath id="clip0_2140_222">
<rect width="175" height="175" rx="87.5" fill="white"/>
</clipPath>
</defs>
</svg>
