<svg width="72" height="72" viewBox="0 0 72 72" fill="none" xmlns="http://www.w3.org/2000/svg">
<g id="github 1">
<path id="Vector" d="M29.044 61.6111C29.044 60.6837 29.0092 57.6313 29.0092 53.8466C29.0092 51.2005 29.8832 49.4739 30.8722 48.5945C24.6445 47.8728 18.0934 45.4406 18.0934 34.5595C18.0934 31.4617 19.1893 28.9279 20.9801 26.9446C20.6941 26.2257 19.7265 23.339 21.2581 19.4313C21.2581 19.4313 23.6128 18.6669 28.9745 22.3394C31.2116 21.7113 33.6118 21.3932 36.0013 21.3879C38.3855 21.3933 40.7857 21.7113 43.0282 22.3394C48.3845 18.6669 50.7393 19.4313 50.7393 19.4313C52.2708 23.339 51.3086 26.2257 51.0172 26.9446C52.8134 28.9279 53.8985 31.459 53.8985 34.5595C53.8985 45.4646 47.3394 47.8675 41.0824 48.5678C42.0954 49.4498 42.9908 51.1791 42.9908 53.8306C42.9908 57.6233 42.956 60.681 42.956 61.6111C42.956 62.3729 43.4612 63.2522 44.8858 62.9796C56.0315 59.2216 64.0633 48.5838 64.0633 36.0483C64.0633 20.3695 51.4957 7.66025 35.996 7.66025C20.5017 7.66025 7.93672 20.3668 7.93672 36.0483C7.93672 48.5891 15.9766 59.2297 27.1383 62.9823C28.5335 63.2442 29.044 62.3675 29.044 61.6111Z" fill="#D0CFCE"/>
<g id="Group">
<path id="Vector_2" d="M29.044 61.6111C29.044 60.6837 29.0092 57.6313 29.0092 53.8466C29.0092 51.2005 29.8832 49.4739 30.8722 48.5945C24.6445 47.8728 18.0934 45.4406 18.0934 34.5595C18.0934 31.4617 19.1893 28.9279 20.9801 26.9446C20.6941 26.2257 19.7265 23.339 21.2581 19.4313C21.2581 19.4313 23.6128 18.6669 28.9745 22.3394C31.2116 21.7113 33.6118 21.3932 36.0013 21.3879C38.3855 21.3933 40.7857 21.7113 43.0282 22.3394C48.3845 18.6669 50.7393 19.4313 50.7393 19.4313C52.2708 23.339 51.3086 26.2257 51.0172 26.9446C52.8134 28.9279 53.8985 31.459 53.8985 34.5595C53.8985 45.4646 47.3394 47.8675 41.0824 48.5678C42.0954 49.4498 42.9908 51.1791 42.9908 53.8306C42.9908 57.6233 42.956 60.681 42.956 61.6111C42.956 62.3729 43.4612 63.2522 44.8858 62.9796C56.0315 59.2216 64.0633 48.5838 64.0633 36.0483C64.0633 20.3695 51.4957 7.66025 35.996 7.66025C20.5017 7.66025 7.93672 20.3668 7.93672 36.0483C7.93672 48.5892 15.9766 59.2297 27.1383 62.9823C28.5335 63.2442 29.044 62.3675 29.044 61.6111Z" stroke="black" stroke-width="2" stroke-miterlimit="10" stroke-linecap="round" stroke-linejoin="round"/>
<path id="Vector_3" d="M16.2893 48.0893C18.8579 48.8698 19.8709 49.7251 21.079 51.7511C22.2844 53.7771 23.6983 56.0383 29.0119 54.75" stroke="black" stroke-width="2" stroke-miterlimit="10" stroke-linecap="round" stroke-linejoin="round"/>
</g>
</g>
</svg>
