<svg width="175" height="175" viewBox="0 0 175 175" fill="none" xmlns="http://www.w3.org/2000/svg">
<path d="M50.9518 49.9217C76.4226 48.067 105.389 46.9724 126.447 48.3338M49.4637 48.1588C64.8168 49.1528 80.3797 49.0384 125.106 47.8004M127.007 49.0347C125.832 74.6637 125.827 100.609 124.3 125.394M125.821 48.4049C124.478 77.5573 125.797 106.203 126.377 125.2M127.097 123.421C105.189 123.342 86.3805 122.694 50.0585 124.896M125.365 124.61C101.585 124.631 77.2068 125.917 50.1929 124.36M49.7032 125.806C47.9839 96.9592 50.203 65.2504 49.9887 47.3521M49.5347 124.153C49.272 108.21 48.8567 90.3031 49.1641 49.2072" stroke="white" stroke-width="0.762901"/>
<path d="M115.167 51.7234C115.626 51.5573 116.247 51.583 116.729 51.7164C117.211 51.8497 117.713 52.1596 118.058 52.5237C118.404 52.8878 118.682 53.4132 118.802 53.9008C118.922 54.3884 118.918 54.962 118.779 55.4493C118.641 55.9366 118.339 56.471 117.972 56.8247C117.606 57.1784 117.062 57.4553 116.579 57.5716C116.096 57.6878 115.551 57.6667 115.076 57.5222C114.601 57.3777 114.087 57.065 113.73 56.7048C113.372 56.3446 113.057 55.8465 112.93 55.3611C112.803 54.8757 112.824 54.2756 112.97 53.7923C113.116 53.309 113.426 52.8083 113.807 52.4614C114.189 52.1145 114.995 51.8289 115.257 51.7108C115.518 51.5928 115.368 51.7046 115.376 51.753M115.613 51.6151C116.088 51.5307 116.675 51.7051 117.131 51.9205C117.587 52.1358 118.064 52.4987 118.351 52.9071C118.637 53.3155 118.804 53.8736 118.848 54.3709C118.893 54.8681 118.825 55.4424 118.617 55.8906C118.409 56.3388 118.005 56.7632 117.602 57.06C117.199 57.3568 116.698 57.6228 116.199 57.6716C115.699 57.7203 115.074 57.5659 114.605 57.3527C114.137 57.1396 113.675 56.7929 113.386 56.3926C113.098 55.9923 112.911 55.4473 112.873 54.9508C112.836 54.4543 112.954 53.8759 113.161 53.4136C113.369 52.9513 113.718 52.48 114.118 52.1771C114.519 51.8742 115.325 51.6695 115.564 51.5964C115.803 51.5233 115.543 51.6805 115.552 51.7385" stroke="white" stroke-width="0.762901"/>
<path d="M90.8241 69.565C93.8305 69.8166 97.354 71.7014 99.7665 73.7013C102.179 75.7012 104.275 78.5961 105.299 81.5645C106.322 84.533 106.499 88.3899 105.907 91.5122C105.315 94.6344 103.759 97.9249 101.749 100.298C99.7394 102.672 96.7623 104.749 93.8472 105.753C90.9321 106.757 87.3383 106.887 84.2588 106.323C81.1793 105.759 77.8111 104.387 75.3702 102.369C72.9293 100.352 70.6911 97.1611 69.6132 94.2192C68.5354 91.2772 68.3462 87.7819 68.9029 84.7174C69.4596 81.6528 70.9114 78.232 72.9536 75.8318C74.9958 73.4316 78.0716 71.3427 81.156 70.3162C84.2404 69.2897 89.6982 69.7083 91.4601 69.6728C93.2219 69.6372 91.7887 69.7682 91.7269 70.1031M84.5867 69.4269C87.5135 68.664 91.595 69.4523 94.4785 70.5754C97.3619 71.6986 99.9345 73.7827 101.887 76.1658C103.84 78.5488 105.711 81.7753 106.196 84.8738C106.682 87.9724 105.918 91.8227 104.8 94.7571C103.682 97.6915 101.904 100.5 99.4876 102.48C97.0714 104.46 93.4494 106.143 90.3023 106.638C87.1552 107.133 83.4872 106.636 80.6052 105.452C77.7231 104.269 74.9295 101.962 73.01 99.5365C71.0906 97.1113 69.5692 93.9144 69.0885 90.9011C68.6078 87.8877 69.0621 84.3943 70.1257 81.4562C71.1894 78.5181 73.0579 75.2765 75.4703 73.2724C77.8827 71.2682 83.0363 69.9869 84.6002 69.4312C86.1642 68.8756 84.7769 69.5756 84.8541 69.9387" stroke="white" stroke-width="0.762901"/>
<path d="M72.7244 20.4272C82.9929 17.2039 96.7017 19.1692 107.511 22.613C118.32 26.0567 129.888 32.8065 137.581 41.09C145.274 49.3735 151.176 61.2799 153.67 72.3139C156.163 83.348 155.993 96.5077 152.539 107.294C149.085 118.08 141.278 129.415 132.947 137.032C124.617 144.648 113.674 150.552 102.556 152.992C91.438 155.433 77.2727 155.137 66.2381 151.675C55.2036 148.213 43.9491 140.483 36.349 132.221C28.7489 123.958 22.9993 113.048 20.6376 102.101C18.2759 91.1544 18.8 77.4868 22.1788 66.5385C25.5576 55.5901 32.1883 44.0966 40.9104 36.4114C49.6324 28.7263 68.3782 23.0471 74.5112 20.4276C80.6442 17.8081 77.3605 19.5679 77.7084 20.6945M87.1776 19.257C98.3119 18.0933 112.19 21.5592 121.905 27.261C131.62 32.9628 139.753 43.573 145.47 53.4675C151.186 63.3621 155.988 75.3653 156.205 86.6285C156.423 97.8917 152.495 111.171 146.773 121.047C141.051 130.923 131.861 140.296 121.871 145.884C111.882 151.473 98.2391 154.666 86.8356 154.578C75.4321 154.489 63.3834 150.831 53.4503 145.354C43.5172 139.877 33.1442 131.549 27.2371 121.716C21.33 111.883 17.8101 97.6667 18.0079 86.355C18.2057 75.0434 22.6451 63.6577 28.4238 53.8466C34.2025 44.0354 42.8955 33.3995 52.68 27.4882C62.4644 21.5768 81.5877 19.563 87.1305 18.3785C92.6732 17.194 86.151 19.0488 85.9364 20.3813" stroke="white"/>
</svg>
