<svg width="72" height="72" viewBox="0 0 72 72" fill="none" xmlns="http://www.w3.org/2000/svg">
<g id="instagram 1">
<path id="Vector" d="M46.7845 12.6136H25.2155C18.2557 12.6136 12.6136 18.2557 12.6136 25.2155V46.7844C12.6136 53.7442 18.2557 59.3863 25.2155 59.3863H46.7844C53.7442 59.3863 59.3863 53.7442 59.3863 46.7844V25.2155C59.3864 18.2557 53.7443 12.6136 46.7845 12.6136Z" stroke="black" stroke-width="2" stroke-miterlimit="10"/>
<path id="Vector_2" d="M36 47.29C42.2353 47.29 47.29 42.2353 47.29 36C47.29 29.7647 42.2353 24.71 36 24.71C29.7647 24.71 24.71 29.7647 24.71 36C24.71 42.2353 29.7647 47.29 36 47.29Z" stroke="black" stroke-width="2" stroke-miterlimit="10"/>
<path id="Vector_3" d="M49.7092 24.7101C51.0453 24.7101 52.1285 23.6269 52.1285 22.2908C52.1285 20.9546 51.0453 19.8715 49.7092 19.8715C48.3731 19.8715 47.2899 20.9546 47.2899 22.2908C47.2899 23.6269 48.3731 24.7101 49.7092 24.7101Z" fill="black"/>
</g>
</svg>
