<svg width="175" height="175" viewBox="0 0 175 175" fill="none" xmlns="http://www.w3.org/2000/svg">
<g clip-path="url(#clip0_8_35)">
<path d="M92.4373 1.84599C105.681 1.45999 121.147 10.0869 132.674 18.2049C144.201 26.3228 155.55 37.8456 161.598 50.554C167.647 63.2623 169.884 80.1879 168.965 94.4549C168.046 108.722 163.712 124.165 156.084 136.155C148.455 148.146 135.731 160.144 123.194 166.398C110.658 172.653 94.7279 174.686 80.8633 173.683C66.9987 172.681 51.592 168.228 40.007 160.381C28.4219 152.535 17.3428 139.667 11.3529 126.605C5.36301 113.543 3.17427 96.2403 4.06762 82.007C4.96097 67.7737 8.90491 52.8366 16.713 41.205C24.5211 29.5735 37.6977 18.4068 50.9163 12.2175C64.1348 6.02818 87.5274 5.02359 96.0242 4.06916C104.521 3.11472 101.819 4.95853 101.897 6.4909M85.8416 2.23674C99.3774 1.58142 117.953 7.58386 130.005 15.2517C142.057 22.9195 151.48 35.9636 158.155 48.2437C164.83 60.5239 170.069 74.994 170.057 88.9327C170.046 102.871 165.64 119.585 158.085 131.875C150.53 144.166 136.614 155.939 124.727 162.676C112.84 169.413 100.265 172.119 86.7637 172.297C73.2622 172.475 56.1699 170.667 43.7177 163.746C31.2655 156.824 18.4308 143.643 12.0506 130.769C5.67048 117.895 5.31061 101.337 5.43683 86.5014C5.56305 71.6653 5.62065 53.6926 12.808 41.7533C19.9953 29.814 36.0352 21.6884 48.5607 14.8657C61.0862 8.043 81.18 2.88287 87.9609 0.817191C94.7418 -1.24849 89.0322 1.08946 89.2461 2.47159" stroke="white" stroke-width="3.35538"/>
<path d="M116.16 52.1545C122.033 52.0484 128.203 52.0174 132.157 52.5757M116.186 52.6831C120.46 52.112 124.716 52.4122 132.207 52.5404M132.089 52.1812C132.157 72.4441 132.249 92.6091 132.096 118.13M132.119 52.2345C132.154 72.4477 132.108 93.14 132.072 118.25M132.098 118.543C126.41 119.21 120.991 118.633 116.249 119.12M132.206 118.701C127.512 118.632 122.687 118.542 116.172 118.62M116.269 117.926C116.237 92.2423 116.211 66.0637 116.026 52.9291M116.195 118.663C116.213 95.2705 116.168 71.8083 116.133 52.7242" stroke="white" stroke-width="3.63001"/>
<path d="M114.508 86.1616C98.4962 95.3945 82.428 108.357 60.8209 123.446M113.906 85.515C103.439 94.9424 91.0065 102.989 62.2063 122.719M60.868 123.678C61.2181 100.013 61.7771 79.1491 60.7136 48.4699M62.1449 122.646C61.0341 104.913 61.5455 87.8015 61.4785 49.3461M61.4822 48.429C73.4336 55.9003 83.8739 62.523 113.933 85.7788M62.1426 48.2556C77.1561 59.3314 93.383 70.2771 114.618 86.4555" stroke="white" stroke-width="5.57821"/>
</g>
<defs>
<clipPath id="clip0_8_35">
<rect width="175" height="175" rx="87.5" fill="white"/>
</clipPath>
</defs>
</svg>
