<svg width="175" height="175" viewBox="0 0 175 175" fill="none" xmlns="http://www.w3.org/2000/svg">
<g clip-path="url(#clip0_8_15)">
<path d="M92.4372 1.84599C105.681 1.45999 121.147 10.0869 132.674 18.2049C144.201 26.3228 155.55 37.8456 161.598 50.554C167.647 63.2623 169.884 80.1879 168.965 94.4548C168.046 108.722 163.712 124.165 156.084 136.155C148.455 148.146 135.731 160.144 123.194 166.398C110.658 172.653 94.7279 174.686 80.8633 173.683C66.9987 172.681 51.592 168.228 40.007 160.381C28.4219 152.535 17.3428 139.667 11.3529 126.605C5.36301 113.543 3.17427 96.2403 4.06762 82.007C4.96097 67.7737 8.90491 52.8366 16.713 41.205C24.5211 29.5735 37.6977 18.4068 50.9163 12.2175C64.1348 6.02818 87.5274 5.02359 96.0242 4.06916C104.521 3.11472 101.819 4.95853 101.897 6.4909M85.8415 2.23674C99.3773 1.58142 117.953 7.58386 130.005 15.2517C142.057 22.9195 151.48 35.9636 158.155 48.2437C164.83 60.5239 170.069 74.994 170.057 88.9327C170.046 102.871 165.64 119.585 158.085 131.875C150.53 144.166 136.614 155.939 124.727 162.676C112.84 169.413 100.265 172.119 86.7637 172.297C73.2622 172.475 56.1699 170.667 43.7177 163.746C31.2655 156.824 18.4308 143.643 12.0506 130.769C5.67048 117.895 5.31061 101.337 5.43683 86.5013C5.56305 71.6653 5.62065 53.6926 12.808 41.7533C19.9953 29.814 36.0352 21.6884 48.5607 14.8657C61.0862 8.043 81.1799 2.88287 87.9609 0.817191C94.7418 -1.24849 89.0322 1.08946 89.2461 2.47159" stroke="white" stroke-width="3.35538"/>
<path d="M52.6945 44.6065C61.1768 44.4769 70.0902 44.4389 75.8007 45.1213M52.7322 45.2526C58.9047 44.5546 65.0522 44.9215 75.8727 45.0782M75.7021 44.6391C75.8014 69.4049 75.9331 94.051 75.7126 125.243M75.7462 44.7043C75.7965 69.4093 75.7298 94.6999 75.678 125.39M75.715 125.748C67.4996 126.563 59.6726 125.858 52.8233 126.453M75.8719 125.941C69.0921 125.857 62.1225 125.747 52.711 125.842M52.8522 124.994C52.8061 93.6027 52.7676 61.6066 52.5012 45.5533M52.7452 125.894C52.7703 97.3038 52.7059 68.6278 52.6556 45.3028" stroke="white" stroke-width="3.63001"/>
<path d="M99.8846 44.6065C108.367 44.4769 117.28 44.4389 122.991 45.1213M99.9223 45.2526C106.095 44.5546 112.242 44.9215 123.063 45.0782M122.892 44.6391C122.992 69.4049 123.123 94.051 122.903 125.243M122.936 44.7043C122.987 69.4093 122.92 94.6999 122.868 125.39M122.905 125.748C114.69 126.563 106.863 125.858 100.013 126.453M123.062 125.941C116.282 125.857 109.313 125.747 99.9011 125.842M100.042 124.994C99.9962 93.6027 99.9577 61.6066 99.6913 45.5533M99.9354 125.894C99.9605 97.3038 99.896 68.6278 99.8457 45.3028" stroke="white" stroke-width="3.63001"/>
</g>
<defs>
<clipPath id="clip0_8_15">
<rect width="175" height="175" rx="87.5" fill="white"/>
</clipPath>
</defs>
</svg>
