<svg width="175" height="175" viewBox="0 0 175 175" fill="none" xmlns="http://www.w3.org/2000/svg">
<g clip-path="url(#clip0_8_2)">
<path d="M92.4372 1.84599C105.681 1.45999 121.147 10.0869 132.674 18.2049C144.201 26.3228 155.55 37.8456 161.598 50.554C167.647 63.2623 169.884 80.1879 168.965 94.4548C168.046 108.722 163.712 124.165 156.084 136.155C148.455 148.146 135.731 160.144 123.194 166.398C110.658 172.653 94.7278 174.686 80.8633 173.683C66.9987 172.681 51.592 168.228 40.007 160.381C28.4219 152.535 17.3428 139.667 11.3529 126.605C5.36301 113.543 3.17427 96.2403 4.06762 82.007C4.96097 67.7737 8.90491 52.8366 16.713 41.205C24.5211 29.5735 37.6977 18.4068 50.9163 12.2175C64.1348 6.02818 87.5274 5.02359 96.0242 4.06916C104.521 3.11472 101.819 4.95853 101.897 6.4909M85.8415 2.23674C99.3773 1.58142 117.953 7.58386 130.005 15.2517C142.057 22.9195 151.48 35.9636 158.155 48.2437C164.83 60.5239 170.069 74.994 170.057 88.9327C170.046 102.871 165.64 119.585 158.085 131.875C150.53 144.166 136.614 155.939 124.727 162.676C112.84 169.413 100.265 172.119 86.7637 172.297C73.2622 172.475 56.1699 170.667 43.7177 163.746C31.2655 156.824 18.4308 143.643 12.0506 130.769C5.67048 117.895 5.31061 101.337 5.43683 86.5013C5.56305 71.6653 5.62065 53.6926 12.808 41.7533C19.9953 29.814 36.0352 21.6884 48.5607 14.8657C61.0862 8.043 81.1799 2.88287 87.9608 0.817191C94.7417 -1.24849 89.0322 1.08946 89.2461 2.47159" stroke="white" stroke-width="3.35538"/>
<path d="M137.918 89.7466C112.817 102.545 87.6276 120.512 53.7553 141.428M136.974 88.8504C120.565 101.918 101.076 113.072 55.927 140.421M53.8291 141.75C54.3779 108.947 55.2543 80.0263 53.5871 37.5002M55.8308 140.32C54.0895 115.739 54.8912 92.0198 54.7862 38.7146M54.792 37.4435C73.5275 47.7998 89.8942 56.98 137.016 89.2161M55.8273 37.203C79.363 52.5559 104.801 67.7283 138.091 90.154" stroke="white" stroke-width="5.57821"/>
</g>
<defs>
<clipPath id="clip0_8_2">
<rect width="175" height="175" rx="87.5" fill="white"/>
</clipPath>
</defs>
</svg>
