<svg width="175" height="175" viewBox="0 0 175 175" fill="none" xmlns="http://www.w3.org/2000/svg">
<g clip-path="url(#clip0_8_52)">
<path d="M92.4372 1.84599C105.681 1.45999 121.147 10.0869 132.674 18.2049C144.201 26.3228 155.55 37.8456 161.598 50.554C167.647 63.2623 169.884 80.1879 168.965 94.4548C168.046 108.722 163.712 124.165 156.084 136.155C148.455 148.146 135.731 160.144 123.194 166.398C110.658 172.653 94.7279 174.686 80.8633 173.683C66.9987 172.681 51.592 168.228 40.007 160.381C28.4219 152.535 17.3428 139.667 11.3529 126.605C5.36301 113.543 3.17427 96.2403 4.06762 82.007C4.96097 67.7737 8.90491 52.8366 16.713 41.205C24.5211 29.5735 37.6977 18.4068 50.9163 12.2175C64.1348 6.02818 87.5274 5.02359 96.0242 4.06916C104.521 3.11472 101.819 4.95853 101.897 6.4909M85.8415 2.23674C99.3773 1.58142 117.953 7.58386 130.005 15.2517C142.057 22.9195 151.48 35.9636 158.155 48.2437C164.83 60.5239 170.069 74.994 170.057 88.9327C170.046 102.871 165.64 119.585 158.085 131.875C150.53 144.166 136.614 155.939 124.727 162.676C112.84 169.413 100.265 172.119 86.7637 172.297C73.2622 172.475 56.1699 170.667 43.7177 163.746C31.2655 156.824 18.4308 143.643 12.0506 130.769C5.67048 117.895 5.31061 101.337 5.43683 86.5013C5.56305 71.6653 5.62065 53.6926 12.808 41.7533C19.9953 29.814 36.0352 21.6884 48.5607 14.8657C61.0862 8.043 81.1799 2.88287 87.9609 0.817191C94.7418 -1.24849 89.0322 1.08946 89.2461 2.47159" stroke="white" stroke-width="3.35538"/>
<path d="M60.824 85.7722C76.8358 76.5393 92.9039 63.5772 114.511 48.4879M61.4257 86.4187C71.8931 76.9914 84.3255 68.945 113.126 49.2145M114.464 48.2555C114.114 71.9205 113.555 92.7846 114.618 123.464M113.187 49.2877C114.298 67.0211 113.786 84.1322 113.853 122.588M113.85 123.505C101.898 116.033 91.458 109.411 61.3993 86.1549M113.189 123.678C98.1759 112.602 81.9489 101.657 60.7135 85.4782" stroke="white" stroke-width="5.57821"/>
<path d="M43.56 52.1544C49.4324 52.0484 55.6032 52.0173 59.5566 52.5756M43.5861 52.6831C47.8594 52.112 52.1154 52.4122 59.6065 52.5403M59.4883 52.1811C59.5571 72.4441 59.6483 92.6091 59.4956 118.13M59.5189 52.2345C59.5537 72.4477 59.5075 93.14 59.4717 118.25M59.4973 118.543C53.8097 119.21 48.391 118.633 43.6492 119.12M59.6059 118.701C54.9122 118.632 50.0871 118.542 43.5714 118.62M43.6692 117.926C43.6373 92.2422 43.6106 66.0636 43.4262 52.9291M43.5951 118.663C43.6125 95.2704 43.5679 71.8082 43.5331 52.7242" stroke="white" stroke-width="3.63001"/>
</g>
<defs>
<clipPath id="clip0_8_52">
<rect width="175" height="175" rx="87.5" fill="white"/>
</clipPath>
</defs>
</svg>
