<svg width="244" height="244" viewBox="0 0 244 244" fill="none" xmlns="http://www.w3.org/2000/svg">
<path id="Vector" d="M121.981 243.844C54.8079 243.844 0.157822 189.194 0.157822 122.019C0.157822 54.8223 54.8079 0.15575 121.981 0.15575C189.178 0.15575 243.842 54.8223 243.842 122.019C243.842 189.194 189.176 243.844 121.981 243.844ZM121.981 3.30931C56.5466 3.30931 3.30932 56.561 3.30932 122.019C3.30932 187.453 56.5466 240.691 121.981 240.691C187.437 240.691 240.689 187.453 240.689 122.019C240.689 56.5631 187.437 3.30931 121.981 3.30931ZM121.984 233.577C60.4695 233.577 10.4229 183.531 10.4229 122.017C10.4229 60.4839 60.4695 10.4249 121.984 10.4249C183.516 10.4249 233.575 60.4839 233.575 122.017C233.575 183.531 183.516 233.577 121.984 233.577ZM121.984 13.5764C62.2061 13.5764 13.5764 62.2226 13.5764 122.014C13.5764 181.792 62.2061 230.421 121.984 230.421C181.777 230.421 230.422 181.792 230.422 122.014C230.422 62.2226 181.777 13.5764 121.984 13.5764ZM121.984 223.31C66.129 223.31 20.69 177.869 20.69 122.014C20.69 66.1455 66.129 20.69 121.984 20.69C177.853 20.69 223.308 66.1455 223.308 122.014C223.308 177.871 177.855 223.31 121.984 223.31ZM121.984 23.8436C67.8697 23.8436 23.8436 67.8821 23.8436 122.017C23.8436 176.13 67.8697 220.158 121.984 220.158C176.116 220.158 220.154 176.132 220.154 122.017C220.156 67.8821 176.116 23.8436 121.984 23.8436Z" fill="#A8ADB1"/>
</svg>
