<svg width="175" height="175" viewBox="0 0 175 175" fill="none" xmlns="http://www.w3.org/2000/svg">
<path d="M121.854 50.2708C124.819 55.1615 126.309 60.804 126.146 66.5208C126.146 86.7708 108.854 113.062 94.8958 131.521H62.8125L49.9583 54.7083L78.0208 52.0417L84.8333 106.708C91.1875 96.2917 99.0208 80.125 99.0208 69.0417C99.188 64.3669 98.2681 59.7172 96.3333 55.4583L121.854 50.2708Z" stroke="white" stroke-linecap="round" stroke-linejoin="round"/>
<path d="M101.81 24.3038C112.676 25.8045 124.944 33.2129 133.202 41.0873C141.461 48.9616 147.955 60.7211 151.361 71.55C154.768 82.3789 156.035 94.9835 153.641 106.061C151.247 117.138 144.924 129.708 136.996 138.012C129.068 146.316 117.104 152.553 106.071 155.886C95.0372 159.219 81.8777 160.601 70.7946 158.009C59.7114 155.417 47.8107 148.123 39.5719 140.334C31.3331 132.546 24.7417 121.975 21.3619 111.28C17.9822 100.585 16.89 87.3615 19.2934 76.1643C21.6969 64.9671 28.0448 52.3938 35.7827 44.0965C43.5207 35.7992 54.4668 29.6074 65.721 26.3805C76.9752 23.1535 97.0455 24.7819 103.308 24.7349C109.57 24.6878 103.644 25.0597 103.295 26.0981M92.1781 22.3208C103.184 22.2291 116.098 29.2715 125.284 35.7364C134.471 42.2013 142.54 50.9359 147.295 61.1102C152.05 71.2845 154.446 85.4399 153.815 96.7822C153.184 108.124 149.876 120.022 143.51 129.164C137.144 138.305 126.078 146.683 115.617 151.631C105.157 156.578 92.112 159.729 80.7472 158.851C69.3824 157.972 56.7076 152.856 47.4285 146.358C38.1493 139.861 29.822 130.133 25.0724 119.868C20.3228 109.604 17.9882 96.0945 18.9307 84.7719C19.8731 73.4494 24.2917 61.1277 30.7272 51.9331C37.1627 42.7384 47.4903 34.5555 57.5436 29.604C67.5969 24.6525 85.3929 23.0794 91.0472 22.224C96.7014 21.3685 91.2784 23.1469 91.4692 24.4711" stroke="white"/>
</svg>
