<svg width="264" height="264" viewBox="0 0 264 264" fill="none" xmlns="http://www.w3.org/2000/svg">
<g clip-path="url(#clip0_3_18939)">
<path d="M131.979 0C59.1112 0 0 59.1113 0 132.021C0 204.889 59.1112 264 131.979 264C204.889 264 264 204.889 264 132.021C264 59.1113 204.889 0 131.979 0Z" fill="#353A3D"/>
<path d="M131.981 253.844C64.8079 253.844 10.1578 199.194 10.1578 132.019C10.1578 64.8223 64.8079 10.1558 131.981 10.1558C199.178 10.1558 253.842 64.8223 253.842 132.019C253.842 199.194 199.176 253.844 131.981 253.844ZM131.981 13.3093C66.5466 13.3093 13.3093 66.561 13.3093 132.019C13.3093 197.453 66.5466 250.691 131.981 250.691C197.437 250.691 250.689 197.453 250.689 132.019C250.689 66.5631 197.437 13.3093 131.981 13.3093ZM131.984 243.577C70.4695 243.577 20.4229 193.531 20.4229 132.017C20.4229 70.4839 70.4695 20.4249 131.984 20.4249C193.516 20.4249 243.575 70.4839 243.575 132.017C243.575 193.531 193.516 243.577 131.984 243.577ZM131.984 23.5764C72.2061 23.5764 23.5764 72.2226 23.5764 132.014C23.5764 191.792 72.2061 240.421 131.984 240.421C191.777 240.421 240.422 191.792 240.422 132.014C240.422 72.2226 191.777 23.5764 131.984 23.5764ZM131.984 233.31C76.129 233.31 30.69 187.869 30.69 132.014C30.69 76.1455 76.129 30.69 131.984 30.69C187.853 30.69 233.308 76.1455 233.308 132.014C233.308 187.871 187.855 233.31 131.984 233.31ZM131.984 33.8436C77.8697 33.8436 33.8436 77.8821 33.8436 132.017C33.8436 186.13 77.8697 230.158 131.984 230.158C186.116 230.158 230.154 186.132 230.154 132.017C230.156 77.8821 186.116 33.8436 131.984 33.8436Z" fill="#A8ADB1"/>
<ellipse cx="131.56" cy="131.56" rx="14.52" ry="14.52" fill="#91B393"/>
</g>
<defs>
<clipPath id="clip0_3_18939">
<rect width="264" height="264" fill="white"/>
</clipPath>
</defs>
</svg>
