<svg width="175" height="175" viewBox="0 0 175 175" fill="none" xmlns="http://www.w3.org/2000/svg">
<mask id="mask0_20_2" style="mask-type:luminance" maskUnits="userSpaceOnUse" x="40" y="38" width="95" height="99">
<path d="M135 38H40V137H135V38Z" fill="white"/>
</mask>
<g mask="url(#mask0_20_2)">
<path d="M46.3047 52.0982C43.5715 55.3476 41.849 57.4419 40.1987 59.3088C42.1785 57.2897 43.553 54.946 46.3047 52.0982ZM46.3047 52.0982C47.9968 50.0537 49.4213 48.6275 51.3338 46.1599C49.7389 48.1727 48.0451 50.3133 46.3047 52.0982ZM46.1196 70.7899C43.8228 74.0213 41.9613 75.508 40.013 78.0005C42.1551 75.6143 44.2983 73.0539 46.1196 70.7899ZM46.1196 70.7899C48.4507 68.535 50.3469 66.0221 51.5075 64.4273C50.2318 65.681 48.2471 68.3664 46.1196 70.7899ZM40.2019 48.7491C41.0336 47.6918 42.1497 46.712 42.7165 45.7797C42.134 46.6056 41.0461 47.6952 40.2019 48.7491ZM40.1118 50.1747C41.2507 48.7712 42.2887 47.3122 43.3445 46.3573C42.4836 47.4774 41.3387 48.9432 40.1118 50.1747ZM40.0217 51.6009C40.9685 49.8195 42.6041 48.937 44.6914 46.0869C43.5584 47.719 41.6107 49.4693 40.0217 51.6009ZM39.9316 53.0271C41.4375 50.8264 43.8483 48.2253 45.6788 46.2402C43.0004 49.5802 41.3523 51.4023 39.9316 53.0271ZM40.2003 54.0289C41.4152 51.8306 43.6887 50.5351 46.6657 46.3941C44.509 49.0591 42.1416 51.4804 40.2003 54.0289ZM40.1102 55.4545C42.6752 51.5902 45.8368 48.7265 48.0126 46.1231C45.9845 48.4872 43.167 52.1547 40.1102 55.4545ZM40.0201 56.8807C42.6486 54.6852 44.7706 51.4719 49 46.277C44.2137 51.8244 42.2827 54.3916 40.0201 56.8807ZM39.9294 58.3069C44.1062 54.4968 46.7417 50.1996 50.3463 46.006C47.7189 49.1304 43.5704 53.7093 39.9294 58.3069ZM40.1086 60.7349C41.8088 59.2663 42.7105 57.6557 46.2146 53.5238C43.0992 57.0176 41.7572 58.919 40.1086 60.7349ZM47.2922 52.2515C48.6678 51.2683 49.6487 49.6311 52.3212 46.3132C50.0705 49.0767 48.8258 50.5074 47.2922 52.2515ZM40.0179 62.1605C42.2621 59.6284 44.3494 56.7744 46.1245 54.9499C43.3511 57.8475 41.8245 59.9769 40.0179 62.1605ZM48.639 51.9811C49.9696 49.6894 52.1247 47.9922 53.6675 46.0428C52.3674 47.5589 50.5135 49.8579 48.639 51.9811ZM39.9278 63.5867C41.9347 60.4634 44.8814 58.1315 46.3938 55.9518C43.6583 59.3783 41.7502 61.5303 39.9278 63.5867ZM49.6265 52.1344C51.2073 50.0192 53.116 47.9492 54.655 46.1961C53.3928 47.7156 51.5232 49.8138 49.6265 52.1344ZM40.1971 64.5886C41.8207 62.8201 43.5421 60.335 46.3031 57.378C43.2555 60.8068 41.906 62.7851 40.1971 64.5886ZM50.6139 52.2877C52.7713 50.0124 54.7625 47.8802 55.6424 46.3494C52.5981 49.85 51.6389 50.9283 50.6139 52.2877ZM40.1069 66.0147C42.8668 63.4752 44.4189 60.6914 46.213 58.8041C43.1632 62.3614 41.6861 63.9193 40.1069 66.0147ZM51.9602 52.0173C52.92 50.3399 54.1897 48.7819 56.9893 46.079C55.3357 47.6845 53.6686 49.8709 51.9602 52.0173ZM40.0163 67.4409C41.8973 65.5209 43.1643 63.5624 46.1229 60.2297C42.2979 64.7198 41.2708 66.0408 40.0163 67.4409ZM52.9477 52.1706C54.0828 50.2228 55.5322 48.5624 57.9762 46.2323C55.8889 48.4012 54.3385 50.4712 52.9477 52.1706ZM39.9262 68.8665C41.8278 67.2768 43.0845 64.9308 46.3916 61.2316C43.6551 64.4998 42.1014 66.3694 39.9262 68.8665ZM53.9351 52.3244C54.7939 50.8174 56.0143 49.7125 58.9636 46.3861C56.505 49.5072 55.0393 50.7167 53.9351 52.3244ZM40.1954 69.8684C42.5856 67.2429 44.5546 64.9229 46.3015 62.6578C43.8917 65.4168 42.0379 67.4664 40.1954 69.8684ZM55.2814 52.0535C56.9122 50.5487 58.3475 48.0872 60.3105 46.1152C57.8459 49.2068 56.3753 50.7025 55.2814 52.0535ZM40.1048 71.2945C41.4755 69.6065 42.3348 68.3777 45.852 64.5082C43.699 67.0771 42.1503 69.0543 40.1048 71.2945ZM56.2689 52.2073C57.4225 50.8858 58.3475 49.2945 61.2979 46.269C59.747 48.0301 58.0576 50.2652 56.2689 52.2073ZM40.0147 72.7207C41.8202 70.5206 44.4791 67.5405 47.1988 64.2373C43.9867 67.5778 42.3088 70.3153 40.0147 72.7207ZM57.2563 52.3607C58.3583 50.5719 60.4608 48.8148 62.6442 45.9981C60.0407 48.8249 58.6216 50.526 57.2563 52.3607ZM39.9245 74.1469C42.204 70.6491 45.8797 68.1028 48.1863 64.3911C45.8558 66.8429 42.9227 70.2531 39.9245 74.1469ZM58.6026 52.0902C60.5102 50.3269 61.8098 48.2411 63.6317 46.1519C60.9309 49.2617 59.7551 50.7167 58.6026 52.0902ZM40.1933 75.1488C43.5888 71.5299 46.4215 67.1496 49.1732 64.5444C44.9476 69.4616 42.3289 72.2568 40.1933 75.1488ZM59.5901 52.2436C61.0384 50.814 61.6117 49.4189 64.6191 46.3052C62.6105 48.7039 60.9755 50.5153 59.5901 52.2436ZM40.1031 76.5744C43.5655 73.0692 46.1707 68.7749 50.52 64.274C47.0143 68.5729 43.2979 72.7603 40.1031 76.5744ZM60.5775 52.3974C62.6165 50.4344 64.1761 48.3333 65.9654 46.0348C63.5155 48.9024 62.2186 50.7891 60.5775 52.3974ZM61.9244 52.1264C63.4959 50.7665 64.4449 48.7169 66.9529 46.1881C65.2727 48.2468 63.5719 50.2036 61.9244 52.1264ZM39.9229 79.4267C41.4874 78.1567 43.0085 75.8259 46.029 72.2155C42.2518 76.3928 41.2149 78.1199 39.9229 79.4267ZM47.4659 70.519C49.0196 68.1724 50.8843 66.5312 52.8538 64.1569C50.8414 66.7015 49.1938 68.7155 47.4659 70.519ZM62.9113 52.2803C64.5703 50.5549 65.796 48.7175 67.9403 46.342C65.6755 48.929 64.1224 50.8202 62.9113 52.2803ZM40.1916 80.4286C41.6362 79.3662 42.5379 76.95 46.2982 73.2174C42.8375 77.3794 41.4939 78.6997 40.1916 80.4286ZM48.4534 70.6728C50.2296 68.7064 51.3414 66.8339 53.8412 64.3102C51.52 67.1207 49.8545 69.0158 48.4534 70.6728ZM64.2581 52.0093C66.4344 49.9264 68.2286 47.3252 69.2866 46.071C66.7363 48.9449 65.4329 50.5787 64.2581 52.0093ZM40.1015 81.8547C41.8349 79.4765 43.4325 78.1188 46.2081 74.6436C44.1496 76.9093 42.3788 79.2892 40.1015 81.8547ZM49.4408 70.8261C50.3279 69.2665 51.5661 67.8369 54.8287 64.4635C52.9162 66.637 51.2024 68.8914 49.4408 70.8261ZM65.2456 52.1632C67.0479 49.884 68.8919 48.5885 70.2741 46.2249C68.1216 48.8843 66.5805 50.5074 65.2456 52.1632ZM40.0114 83.2803C42.4624 80.3844 44.3097 77.8908 46.1175 76.0697C42.8142 80.049 41.5102 81.4644 40.0114 83.2803ZM50.7871 70.5557C53.0199 68.191 54.8591 65.8829 56.175 64.1931C54.6865 66.0164 52.7946 68.3325 50.7871 70.5557ZM66.233 52.3165C67.582 50.7218 68.6634 49.9875 71.2615 46.3782C68.1379 49.9405 67.1602 50.999 66.233 52.3165ZM39.9213 84.7065C42.223 82.4165 44.2261 79.8781 46.0273 77.4959C43.0726 80.8246 41.3713 82.8832 39.9213 84.7065ZM51.7746 70.709C52.9428 68.9802 53.984 67.4664 57.1624 64.3464C54.9031 66.9091 53.4194 68.9395 51.7746 70.709ZM67.5793 52.0461C68.9245 50.2607 70.3604 48.9511 72.6083 46.1078C70.1085 49.0597 68.6221 50.4995 67.5793 52.0461ZM40.19 85.7084C41.6709 83.79 43.9145 81.6103 46.2966 78.4978C42.8022 82.8329 41.7236 83.9965 40.19 85.7084ZM52.762 70.8629C54.4232 68.7845 55.7255 67.05 58.1499 64.5003C55.9812 67.3843 54.4264 69.0634 52.762 70.8629ZM68.5668 52.1994C70.0607 51.1246 70.6199 49.0671 73.5953 46.2611C71.0992 48.9613 69.9521 50.7846 68.5668 52.1994ZM40.0999 87.1345C42.73 84.6177 44.1871 82.2881 46.2059 79.9234C44.4938 82.0652 42.0938 84.6024 40.0999 87.1345ZM54.1083 70.5919C55.6207 68.9813 57.5071 66.5465 59.4967 64.2293C56.3172 68.0677 55.4611 69.4 54.1083 70.5919ZM69.5542 52.3527C71.5335 50.4678 73.1914 48.2264 74.9421 45.9907C72.2821 49.1847 70.7013 50.9752 69.5542 52.3527ZM40.0098 88.5607C41.9342 86.936 43.629 84.6827 46.1158 81.3496C43.7273 84.3128 42.0905 86.2616 40.0098 88.5607ZM55.0958 70.7458C56.2863 69.5114 58.0104 67.4516 60.4836 64.3832C58.8328 66.6676 56.8905 68.5276 55.0958 70.7458ZM70.9005 52.0823C72.009 50.0429 73.3515 48.6411 75.9295 46.144C74.637 47.8468 72.5378 49.8285 70.9005 52.0823ZM39.9191 89.9863C41.4847 88.3135 42.9141 87.302 46.0257 82.7757C44.5377 84.1928 42.3636 86.9841 39.9191 89.9863ZM56.0832 70.8991C57.4463 69.0962 59.4365 67.3713 61.4711 64.5365C58.4935 67.8618 57.4936 69.3819 56.0832 70.8991ZM71.888 52.2356C72.8152 51.1851 74.2489 49.6135 76.917 46.2973C75.5083 47.9486 73.8157 49.9626 71.888 52.2356ZM40.1884 90.9882C41.3713 88.8521 42.8663 87.1153 46.2944 83.7776C42.6562 88.202 41.5732 89.364 40.1884 90.9882ZM57.4301 70.6287C59.7823 68.1192 61.1617 65.604 62.8179 64.2661C60.1025 67.5953 58.7324 69.2178 57.4301 70.6287ZM72.8754 52.3895C74.4378 50.9899 75.8047 48.9415 78.2633 46.0269C77.0744 47.3552 75.0208 49.7861 72.8754 52.3895ZM40.0983 92.4144C41.6318 89.9303 43.4906 88.1127 46.2043 85.2038C43.9335 88.0029 42.0211 90.2533 40.0983 92.4144ZM58.417 70.782C59.8631 69.6268 61.0683 67.6876 63.8054 64.4194C62.1567 66.3643 60.1574 68.7155 58.417 70.782ZM74.2217 52.1185C75.2103 50.728 76.3834 48.7882 79.2507 46.1802C76.1907 49.6735 75.4155 51.0307 74.2217 52.1185ZM40.0076 93.8405C42.4532 91.5579 44.2804 88.5211 46.1142 86.6294C43.3749 89.5168 41.9385 91.8056 40.0076 93.8405ZM59.7638 70.5116C60.9456 68.9972 62.3787 67.36 65.1517 64.149C63.148 66.9063 61.1839 68.4479 59.7638 70.5116ZM75.2092 52.2724C76.2211 51.0929 77.2894 49.9745 80.2382 46.3341C77.3507 49.8376 76.3904 51.0024 75.2092 52.2724ZM39.9175 95.2661C42.09 92.5892 43.6779 90.7042 46.0241 88.0555C43.3283 91.2993 41.7589 93.0372 39.9175 95.2661ZM60.7513 70.6649C61.831 69.5357 62.9151 67.5603 66.1391 64.3023C64.7744 66.2224 62.6225 68.3415 60.7513 70.6649ZM76.556 52.0014C78.0744 50.237 80.2979 48.1749 81.5845 46.0631C79.672 48.6077 77.9072 50.2262 76.556 52.0014ZM40.1867 96.268C42.1095 94.262 43.8912 91.9346 46.2928 89.0574C43.0764 92.9942 41.7599 94.6931 40.1867 96.268ZM61.7387 70.8182C63.2099 69.7196 64.1951 67.9427 67.1266 64.4562C65.9252 65.6629 63.7153 68.29 61.7387 70.8182ZM77.5435 52.1553C79.2991 50.3252 80.7767 48.283 82.5719 46.217C80.0205 49.041 79.0233 50.3942 77.5435 52.1553ZM40.0966 97.6942C40.9381 96.4479 42.9461 94.7779 46.2027 90.4836C44.5166 92.4076 42.4298 95.2373 40.0966 97.6942ZM63.085 70.5478C64.7081 68.6566 66.6016 66.2371 68.4729 64.1852C66.2596 66.6308 64.6989 68.673 63.085 70.5478ZM78.5304 52.3086C80.4787 50.5566 82.2104 48.0154 83.5594 46.3703C81.6719 48.7599 80.058 50.4808 78.5304 52.3086ZM40.006 99.1203C42.255 97.0843 44.2517 93.9497 46.1126 91.9097C44.2831 94.3333 42.0927 96.5967 40.006 99.1203ZM64.0725 70.7011C66.176 68.1594 67.8936 66.5584 69.4603 64.3391C67.5191 67.0127 65.6755 68.8201 64.0725 70.7011ZM79.8772 52.0382C81.2979 50.2047 82.7945 48.5144 84.9057 46.0999C83.4731 47.4446 81.9183 50.0011 79.8772 52.0382ZM39.9159 100.546C42.1562 98.0166 43.9031 96.3891 46.0225 93.3353C43.5541 96.2618 41.6383 98.592 39.9159 100.546ZM65.0599 70.855C65.9573 69.2161 67.1081 67.7747 70.4478 64.4924C67.8019 67.3476 66.2596 69.1873 65.0599 70.855ZM80.8647 52.1915C82.6979 49.9637 84.4698 47.9181 85.8931 46.2532C83.9774 48.7237 82.3401 50.5436 80.8647 52.1915ZM40.1851 101.548C42.1302 99.6142 44.3619 97.0877 46.2912 94.3372C44.8998 96.0032 42.6312 99.0677 40.1851 101.548ZM66.4062 70.584C67.7107 69.1194 69.6867 66.8107 71.7946 64.222C69.8132 66.7909 67.9561 68.8393 66.4062 70.584ZM81.8521 52.3454C83.7852 50.2743 85.6521 48.1546 86.8806 46.4071C84.4144 49.3924 83.2641 50.7653 81.8521 52.3454ZM40.0945 102.974C42.0368 100.653 44.3581 98.549 46.2011 95.7634C44.3065 97.7654 42.3907 100.287 40.0945 102.974ZM67.3937 70.7379C68.5977 69.1618 69.9277 67.7226 72.7815 64.3753C70.0205 67.8018 68.8968 69.0577 67.3937 70.7379ZM83.1984 52.0744C84.5311 49.9088 86.5261 48.3316 88.2274 46.1361C86.5343 48.2751 85.0387 50.1481 83.1984 52.0744ZM40.0043 104.4C42.1155 101.798 43.8494 100.54 46.1109 97.1896C43.2946 100.48 41.4549 102.511 40.0043 104.4ZM68.3811 70.8912C70.0575 69.0441 71.5715 67.3232 73.769 64.5286C72.395 65.9389 70.3625 68.2838 68.3811 70.8912ZM84.1859 52.2283C84.8785 51.1958 86.1152 49.764 89.2149 46.29C87.3561 48.2174 85.7129 50.229 84.1859 52.2283ZM39.9142 105.826C42.4146 103.498 44.6349 100.702 46.0208 98.6157C43.9107 100.855 41.7735 103.348 39.9142 105.826ZM69.7274 70.6208C71.3381 68.4428 72.927 66.6268 75.1158 64.2582C73.1935 66.2026 71.4363 68.3381 69.7274 70.6208ZM85.1733 52.3816C87.0348 50.3365 88.1047 48.9183 90.5612 46.019C88.8202 48.1563 86.759 50.0825 85.1733 52.3816ZM40.1829 106.828C42.4043 104.381 44.5187 102.117 46.2895 99.6176C44.2641 101.885 42.3267 104.596 40.1829 106.828ZM70.7149 70.7741C71.9379 68.733 73.3097 67.6672 76.1033 64.4115C74.1441 66.7801 72.3727 68.8292 70.7149 70.7741ZM86.5196 52.1112C88.1862 49.441 90.73 47.5266 91.5486 46.1729C88.9483 48.9997 87.9658 50.4932 86.5196 52.1112ZM40.0928 108.254C42.1703 105.54 44.6067 103.317 46.1994 101.043C44.5774 102.866 42.2246 105.375 40.0928 108.254ZM72.0617 70.5037C73.8699 68.5293 75.3112 66.2976 77.4495 64.1411C76.2178 65.7619 74.0523 68.0609 72.0617 70.5037ZM87.5071 52.2645C88.4283 50.5628 89.8392 49.1457 92.5361 46.3262C90.6773 48.6049 89.1943 50.5187 87.5071 52.2645ZM40.0027 109.68C42.1372 107.119 44.1425 104.635 46.1093 102.469C44.3325 104.63 42.2208 107.177 40.0027 109.68ZM73.0491 70.657C74.4209 68.6357 75.8421 66.917 78.437 64.2944C75.2922 68.0841 74.3091 69.1267 73.0491 70.657ZM88.8539 51.9941C90.3527 50.0684 91.3717 48.894 93.8824 46.0558C92.9003 47.56 90.8576 49.7618 88.8539 51.9941ZM39.9126 111.106C41.4825 108.843 43.0633 106.684 46.0187 103.896C44.7619 105.284 42.172 108.155 39.9126 111.106ZM74.0366 70.8109C76.2249 68.1842 77.7193 65.8773 79.4245 64.4483C76.8068 67.1875 75.6456 69.2574 74.0366 70.8109ZM89.8408 52.1474C91.2088 50.5922 92.218 49.0654 94.8698 46.2091C92.7614 48.7689 91.2663 50.6081 89.8408 52.1474ZM40.1813 112.108C41.8739 110.331 43.0606 108.675 46.2879 104.897C43.1529 108.336 41.7627 110.291 40.1813 112.108ZM75.3829 70.5399C76.6776 68.2793 78.4484 66.7207 80.7707 64.1773C78.0847 67.2163 76.7574 69.1064 75.3829 70.5399ZM90.8283 52.3007C92.2142 50.435 93.8042 48.5772 95.8573 46.3624C92.9253 49.6679 92.0926 51.0012 90.8283 52.3007ZM40.0912 113.534C41.6373 111.396 43.0644 110.595 46.1978 106.323C42.5417 110.332 41.4755 111.875 40.0912 113.534ZM76.3703 70.6938C77.5136 68.6498 79.3696 67.2344 81.7582 64.3312C79.7871 66.5606 78.0049 68.8427 76.3703 70.6938ZM92.1751 52.0303C93.3829 50.0548 94.9903 48.3373 97.2036 46.092C94.3644 49.8619 93.3487 50.7286 92.1751 52.0303ZM40.0011 114.96C41.957 113.518 42.6871 111.264 46.1071 107.749C43.5145 110.71 42.0515 112.74 40.0011 114.96ZM77.3578 70.8471C79.8615 68.6883 81.8103 65.9683 82.7457 64.4845C80.7919 66.9063 78.9864 68.6759 77.3578 70.8471ZM93.1625 52.1836C94.7477 50.4768 95.8611 49.1802 98.191 46.2453C96.4979 48.3232 94.7298 50.349 93.1625 52.1836ZM39.911 116.386C41.2996 114.842 43.0509 113.304 46.017 109.175C44.0855 111.332 42.0867 113.669 39.911 116.386ZM78.7041 70.5767C80.4771 68.6962 81.2034 66.8599 84.0919 64.2141C81.3516 67.4058 80.0569 68.9219 78.7041 70.5767ZM94.1495 52.3375C95.5033 50.5255 97.4131 49.0608 99.1785 46.3992C96.5033 49.6763 95.2189 50.8768 94.1495 52.3375ZM40.1797 117.388C42.1649 114.25 44.5166 112.152 46.2863 110.177C43.0205 114.148 41.5341 116.015 40.1797 117.388ZM79.6915 70.73C81.338 69.3541 82.7348 67.1252 85.0794 64.3674C83.2668 66.3378 81.4547 68.7726 79.6915 70.73ZM95.4963 52.0665C97.4701 50.1317 99.0531 47.6268 100.525 46.1282C98.3457 49.0625 96.7503 50.3196 95.4963 52.0665ZM40.0896 118.814C41.1796 117.039 42.2518 116.057 46.1956 111.603C43.0058 115.509 41.5803 116.939 40.0896 118.814ZM80.679 70.8833C82.2994 68.9977 83.1957 67.3425 86.0669 64.5212C82.8439 67.9472 82.022 69.512 80.679 70.8833ZM96.4837 52.2204C98.2193 49.8732 100.144 47.4865 101.512 46.2821C99.4135 48.8108 97.9142 50.603 96.4837 52.2204ZM39.9995 120.24C41.7002 117.419 44.402 115.706 46.1055 113.029C43.2392 116.291 41.6367 118.446 39.9995 120.24ZM82.0253 70.6129C83.5686 68.0343 85.3628 66.5674 87.4137 64.2503C84.992 67.3147 83.5078 68.6742 82.0253 70.6129ZM97.4712 52.3737C98.8566 50.1431 101.031 48.5149 102.859 46.0111C100.412 49.3296 98.9136 50.6997 97.4712 52.3737ZM39.9088 121.666C41.1552 120.026 42.787 118.153 46.0154 114.455C44.1398 116.34 42.0645 118.929 39.9088 121.666ZM83.0127 70.7662C84.2776 68.9417 86.056 66.9736 88.4006 64.4041C85.4247 68.2584 83.9812 69.422 83.0127 70.7662ZM98.8175 52.1033C100.639 50.4814 101.875 48.5545 103.847 46.165C102.689 47.2545 100.706 49.7041 98.8175 52.1033ZM40.1781 122.668C42.0563 120.405 43.2468 118.5 46.2841 115.457C43.8266 118.42 42.2029 120.628 40.1781 122.668ZM84.0002 70.92C85.5799 69.2501 86.2178 68.376 89.7474 64.1332C88.4641 65.7783 86.0935 68.3992 84.0002 70.92ZM99.8049 52.2566C101.692 50.4842 102.626 48.5726 104.834 46.3183C103.71 47.6426 101.626 49.7256 99.8049 52.2566ZM40.0879 124.094C42.1953 121.135 44.0584 118.938 46.194 116.883C43.9173 119.717 41.8457 121.848 40.0879 124.094ZM85.347 70.6491C86.3448 69.3457 88.1156 67.5891 90.7349 64.287C87.6357 67.7786 86.6206 69.0758 85.347 70.6491ZM101.152 51.9862C102.346 50.5006 103.64 48.8617 106.18 46.0478C104.762 47.4338 102.975 49.6 101.152 51.9862ZM39.9973 125.52C41.3897 123.509 43.5389 121.717 46.1039 118.309C44.9291 119.786 42.4358 122.514 39.9973 125.52ZM86.3339 70.8029C87.6325 68.9248 89.4934 67.063 91.7223 64.4404C90.5612 65.7341 88.3979 68.3624 86.3339 70.8029ZM102.139 52.1395C103.184 50.3377 104.641 48.9788 107.168 46.2012C106.102 47.8129 103.863 50.0361 102.139 52.1395ZM40.2665 126.522C42.0688 125.141 43.1616 122.945 46.0138 119.735C42.8087 123.124 41.6791 125.122 40.2665 126.522ZM87.6808 70.532C89.6557 68.3234 91.1822 65.8925 93.0686 64.1699C89.8902 67.7249 88.7963 69.3575 87.6808 70.532ZM103.126 52.2933C104.693 49.8138 106.855 48.0284 108.155 46.355C105.883 48.718 104.447 50.582 103.126 52.2933ZM40.5353 127.524C42.1427 125.726 44.1246 123.781 46.2825 120.737C43.4797 123.701 41.9217 125.738 40.5353 127.524ZM88.6682 70.6858C90.0856 69.2597 91.3983 67.6242 94.0561 64.3232C92.6875 65.9757 90.8407 68.3528 88.6682 70.6858ZM104.473 52.0224C105.952 50.577 107.434 48.6117 109.501 46.0841C107.282 48.9635 105.679 50.2703 104.473 52.0224ZM40.8045 128.526C42.4206 126.88 43.8277 125.299 46.1924 122.163C42.8321 125.932 41.9 127.221 40.8045 128.526ZM89.6557 70.8391C90.7398 69.6342 92.4921 67.8052 95.0435 64.4766C92.4623 67.4013 91.028 69.2042 89.6557 70.8391ZM105.46 52.1762C107.686 49.8692 109.548 47.7704 110.489 46.2379C108.102 48.8832 106.993 50.3654 105.46 52.1762ZM41.792 128.679C43.243 126.878 45.086 125.469 46.1023 123.589C44.5584 125.326 43.0389 126.936 41.792 128.679ZM91.002 70.5687C92.9671 67.9025 95.6689 65.75 96.3898 64.2061C93.4964 67.7232 92.2847 69.3055 91.002 70.5687ZM106.447 52.3295C107.705 50.7076 108.559 49.9739 111.476 46.3912C109.158 49.4286 107.777 50.8298 106.447 52.3295ZM42.4201 129.256C43.502 128.264 44.395 127.115 47.4485 123.318C45.9166 124.886 44.2799 127.072 42.4201 129.256ZM91.9894 70.722C93.8634 68.6623 96.4474 66.1556 97.3773 64.3595C95.7949 66.5703 93.9937 68.716 91.9894 70.722ZM107.794 52.0591C109.169 50.5934 110.314 48.7802 112.823 46.1208C110.966 48.382 109.417 50.2296 107.794 52.0591ZM43.4075 129.41C45.3379 126.887 47.1272 124.909 48.436 123.472C45.6647 126.815 44.5823 128.305 43.4075 129.41ZM92.9769 70.8759C94.1147 69.0894 95.8432 67.0104 98.3647 64.5133C95.7123 67.7662 94.0702 69.2501 92.9769 70.8759ZM108.782 52.2124C110.38 50.4338 112.594 48.0782 113.81 46.2741C111.996 48.5019 110.351 50.4729 108.782 52.2124ZM44.395 129.564C46.6994 127.249 49.0293 124.419 49.7828 123.201C46.7803 126.938 45.7114 128.24 44.395 129.564ZM94.3232 70.6049C96.0945 67.9218 97.8854 65.6108 99.711 64.2424C98.3691 65.6742 96.5217 67.9444 94.3232 70.6049ZM109.769 52.3657C111.43 50.0084 113.444 47.2687 115.157 46.0037C113.503 47.9673 111.822 50.2924 109.769 52.3657ZM45.3819 129.718C47.6847 127.785 48.9924 124.812 50.7703 123.355C49.0733 125.511 47.011 127.5 45.3819 129.718ZM95.3106 70.7588C96.9902 69.0549 97.6818 67.661 100.698 64.3962C98.8853 66.5889 97.2448 68.5576 95.3106 70.7588ZM111.115 52.0953C112.702 50.8242 113.754 49.2419 116.144 46.157C114.18 48.5975 112.608 50.4248 111.115 52.0953ZM46.7287 129.447C48.0419 127.907 49.443 126.073 51.7572 123.508C49.4066 126.314 48.1277 127.831 46.7287 129.447ZM96.2981 70.9121C98.3696 68.2533 100.257 65.8592 101.686 64.5495C99.2881 67.4053 97.7567 69.095 96.2981 70.9121ZM112.103 52.2486C113.504 50.7948 114.241 49.7714 117.131 46.3103C114.83 49.0846 113.376 50.6782 112.103 52.2486ZM47.7162 129.6C49.0538 127.834 50.6015 125.633 53.104 123.238C51.7485 124.829 49.8192 127.377 47.7162 129.6ZM97.6444 70.6417C98.7952 69.2003 100.64 66.749 103.033 64.2791C99.7892 68.1605 98.8544 69.4639 97.6444 70.6417ZM113.449 51.9782C114.572 50.5475 115.933 48.5302 118.478 46.0399C116.676 48.1834 114.845 50.1623 113.449 51.9782ZM48.7036 129.754C49.874 128.426 51.1812 126.759 54.0915 123.391C51.1172 126.81 50.026 128.447 48.7036 129.754ZM98.6318 70.795C99.5829 68.9994 101.363 68.1113 104.02 64.4324C101.856 66.8429 100.374 68.7607 98.6318 70.795ZM114.437 52.1315C115.81 50.7591 117.676 48.6982 119.466 46.1932C118.416 47.4514 116.22 49.6696 114.437 52.1315ZM50.0499 129.483C51.9776 127.66 52.9727 125.878 55.0789 123.545C52.2289 126.822 51.3897 128.266 50.0499 129.483ZM99.9787 70.5246C101.382 68.4699 102.707 66.8831 105.367 64.162C103.632 66.1861 101.844 68.3019 99.9787 70.5246ZM115.424 52.2854C117.375 50.4949 118.693 47.9718 120.453 46.3471C119.138 48.1008 117.327 49.9654 115.424 52.2854ZM51.0374 129.637C52.9911 127.485 54.5735 125.614 56.4252 123.274C54.0752 125.806 52.4542 127.852 51.0374 129.637ZM100.966 70.6779C102.554 69.4933 103.468 68.0864 106.354 64.3153C103.881 67.4596 102.419 69.1369 100.966 70.6779ZM116.771 52.0144C117.721 50.4627 118.549 49.734 121.799 46.0761C118.616 49.5581 117.911 50.7965 116.771 52.0144ZM52.3837 129.366C54.5138 127.267 56.0143 124.917 57.4127 123.428C54.9655 126.383 53.6469 127.936 52.3837 129.366ZM101.953 70.8312C104 68.673 105.622 66.9883 107.341 64.4692C105.943 66.1443 103.737 68.4496 101.953 70.8312ZM117.758 52.1683C119.371 50.1747 120.455 48.5743 122.787 46.23C120.893 48.5613 119.361 50.4757 117.758 52.1683ZM53.3711 129.52C54.2321 128.4 55.6305 127.059 58.4001 123.581C55.9909 126.432 54.795 127.799 53.3711 129.52ZM103.3 70.5608C105.326 68.0785 107.122 65.9695 108.688 64.1982C107.383 65.6612 105.52 68.1673 103.3 70.5608ZM118.745 52.3216C119.896 51.0069 120.427 50.2143 123.774 46.3833C121.574 49.0026 120.131 50.7908 118.745 52.3216ZM54.3586 129.673C56.1082 127.386 58.0554 125.208 59.7464 123.311C57.9903 125.591 56.1527 127.434 54.3586 129.673ZM104.287 70.7141C106.378 68.7454 107.873 66.6811 109.675 64.3521C107.033 67.1852 105.681 68.9253 104.287 70.7141ZM120.092 52.0512C121.037 50.7484 122.913 49.1163 125.121 46.1129C122.326 49.2752 121.08 50.7105 120.092 52.0512ZM55.7054 129.402C57.6011 127.696 59.0999 125.125 60.7339 123.464C58.0554 126.619 56.8508 128.019 55.7054 129.402ZM105.275 70.868C106.118 69.409 107.991 67.8431 110.663 64.5054C107.956 67.8901 106.663 69.4311 105.275 70.868ZM121.08 52.2045C123.102 50.2551 124.262 48.1212 126.108 46.2662C123.444 49.2345 122.274 50.8293 121.08 52.2045ZM56.6923 129.556C57.8638 128.574 59.184 127.06 62.0807 123.194C60.2931 125.479 58.5022 127.529 56.6923 129.556ZM106.621 70.597C109.106 67.9574 110.896 65.9072 112.009 64.235C110.545 65.8003 108.659 68.3981 106.621 70.597ZM122.066 52.3584C124.349 50.0616 126.06 48.0041 127.455 45.9958C125.412 48.1563 123.919 50.3314 122.066 52.3584ZM57.6798 129.71C59.5543 127.891 60.8625 125.904 63.0676 123.347C61.7626 124.901 59.7964 127.129 57.6798 129.71ZM107.609 70.7509C109.214 68.5033 111.964 66.4679 112.996 64.3883C110.913 67.0115 109.143 68.8207 107.609 70.7509ZM123.413 52.0874C125.039 49.7431 127.151 47.5385 128.442 46.1491C125.52 49.6333 124.472 50.775 123.413 52.0874ZM59.0266 129.439C59.956 127.885 61.5221 126.585 64.0551 123.5C62.7577 125.097 60.8571 127.202 59.0266 129.439ZM108.596 70.9042C109.871 69.5154 111.257 67.8035 113.984 64.5416C112.494 66.6693 110.548 68.5497 108.596 70.9042ZM124.401 52.2413C125.549 50.5323 127.625 49.1372 129.429 46.303C126.556 49.8381 125.473 51.0024 124.401 52.2413ZM60.0141 129.593C61.7979 127.48 62.9694 125.42 65.4019 123.23C64.0214 124.541 62.1339 127.371 60.0141 129.593ZM109.942 70.6338C111.841 68.4371 113.8 66.2076 115.331 64.2712C114.104 66.1239 111.832 68.2499 109.942 70.6338ZM125.388 52.3946C127.219 50.7037 128.512 49.3245 130.776 46.032C128.486 48.7746 127.007 50.685 125.388 52.3946ZM61.001 129.746C63.2918 127.692 64.8916 125.571 66.3894 123.383C64.9584 124.881 63.1833 127.231 61.001 129.746ZM110.93 70.7871C112.464 69.1273 113.424 67.3 116.318 64.4245C114.954 66.0758 112.864 68.2584 110.93 70.7871ZM126.734 52.1242C127.65 50.2358 128.892 49.2125 132.122 45.7616C130.975 47.1962 128.745 49.8127 126.734 52.1242ZM62.3478 129.475C63.1735 127.912 64.6539 127.002 67.3763 123.537C65.2564 126.083 63.7087 127.647 62.3478 129.475ZM112.277 70.5167C114.314 68.6696 116.342 66.4911 117.664 64.1541C115.009 67.0545 113.513 68.7245 112.277 70.5167ZM127.722 52.2775C128.681 51.3644 129.492 49.8421 132.75 46.3392C131.642 47.5317 129.747 50.1001 127.722 52.2775ZM63.3353 129.629C64.8189 127.795 66.739 125.459 68.7231 123.266C66.9594 125.604 65.2906 127.579 63.3353 129.629ZM113.263 70.67C114.82 68.9972 116.202 67.2519 118.652 64.3074C116.581 66.8899 114.858 68.6131 113.263 70.67ZM129.068 52.0071C131.153 49.7199 132.449 48.1099 133.738 46.4925C131.547 49.1819 130.382 50.4587 129.068 52.0071ZM64.6815 129.358C66.7547 127.387 68.4658 125.088 69.7106 123.42C68.5413 124.882 66.6945 127.042 64.6815 129.358ZM114.251 70.8239C115.505 68.7743 116.948 67.6282 119.639 64.4613C117.148 67.575 115.694 69.1901 114.251 70.8239ZM128.978 53.4327C131.27 51.1557 133.066 48.5138 134.366 47.0707C131.469 50.1102 130.236 51.7831 128.978 53.4327ZM65.669 129.512C67.107 127.692 69.4663 125.225 70.698 123.573C68.3377 126.406 66.8139 127.978 65.669 129.512ZM115.598 70.5529C117.307 68.3868 119.592 65.2193 120.986 64.1903C119.55 65.7307 117.626 68.1294 115.598 70.5529ZM129.247 54.4346C130.957 52.3188 133.211 49.6916 134.995 47.6483C133.026 49.6724 131.072 51.946 129.247 54.4346ZM66.6565 129.666C67.816 127.968 69.7388 126.241 72.0443 123.303C70.7051 124.881 68.8165 127.202 66.6565 129.666ZM116.585 70.7068C118.91 68.0875 121.286 66.0125 121.973 64.3442C120.494 66.1398 118.589 68.5961 116.585 70.7068ZM129.157 55.8607C130.97 53.2183 133.238 51.3622 134.904 49.0744C132.592 51.6479 131.074 53.9712 129.157 55.8607ZM68.0027 129.395C69.6737 127.686 70.565 126.395 73.0318 123.456C70.6155 126.461 69.1699 127.725 68.0027 129.395ZM117.572 70.8601C119.16 69.073 121.201 66.3621 122.961 64.4975C120.605 67.2282 119.333 68.9214 117.572 70.8601ZM129.067 57.2869C131.277 55.3759 132.883 52.8257 135.173 50.0757C133.042 52.8924 130.888 54.8622 129.067 57.2869ZM68.9902 129.548C70.647 127.285 73.1382 124.838 74.3781 123.186C72.3993 125.57 70.5699 127.551 68.9902 129.548ZM118.919 70.5897C120.389 68.393 122.269 67.0358 124.307 64.2271C122.875 65.957 120.76 68.191 118.919 70.5897ZM128.976 58.7131C130.626 56.905 132.209 54.2564 135.083 51.5019C133.167 53.7331 131.34 55.9145 128.976 58.7131ZM69.9777 129.702C71.4738 127.379 73.8737 125.7 75.3655 123.339C72.2549 127.08 71.1877 128.467 69.9777 129.702ZM119.906 70.743C121.958 68.2917 123.386 65.7732 125.294 64.3804C123.76 66.1352 121.936 68.2844 119.906 70.743ZM129.246 59.7149C131.553 57.3734 133.654 54.6784 134.992 52.9281C132.7 55.5807 130.841 57.8464 129.246 59.7149ZM71.3245 129.431C72.5378 127.542 73.9698 126.202 76.353 123.493C75.0517 124.965 73.0882 127.125 71.3245 129.431ZM120.894 70.8963C122.903 68.6928 124.43 66.7468 126.282 64.5343C125.072 66.1471 122.919 68.6498 120.894 70.8963ZM129.155 61.1405C130.564 58.7561 132.314 56.6358 134.902 54.3542C133.76 55.751 131.5 58.6208 129.155 61.1405ZM72.3114 129.585C74.1891 127.563 76.0045 124.998 77.6998 123.222C75.2016 125.956 73.7853 127.68 72.3114 129.585ZM122.24 70.6259C123.745 68.5678 124.961 66.6891 127.628 64.2633C126.049 66.0724 124.148 68.4626 122.24 70.6259ZM129.065 62.5667C130.441 60.9493 132.487 58.5569 135.172 55.3561C132.947 58.2339 131.031 60.3333 129.065 62.5667ZM73.2989 129.738C74.289 128.104 75.7026 126.862 78.6873 123.376C76.6494 125.958 74.9502 127.807 73.2989 129.738ZM123.228 70.7792C125.339 68.4948 127.32 65.9497 128.615 64.4172C126.248 66.8797 124.732 68.9055 123.228 70.7792ZM128.975 63.9929C130.869 61.424 132.472 59.3421 135.081 56.7817C132.142 60.0187 130.736 62.0123 128.975 63.9929ZM74.6457 129.468C76.9268 127.562 78.1732 124.945 79.6742 123.529C77.7763 125.758 76.4366 127.697 74.6457 129.468ZM124.574 70.5088C128.419 66.1697 132.507 61.3103 134.991 58.2079C132.716 60.5929 128.668 65.8139 124.574 70.5088ZM75.6331 129.621C77.0961 128.081 78.4815 126.003 81.021 123.259C78.874 125.625 77.1781 127.54 75.6331 129.621ZM125.561 70.6621C128.494 67.5552 131.309 64.063 134.901 59.634C132.352 62.5548 129.21 66.5646 125.561 70.6621ZM76.9794 129.35C78.177 127.514 79.4717 125.816 82.0085 123.412C79.5547 126.189 78.0852 128.029 76.9794 129.35ZM126.549 70.816C129.843 66.3836 133.544 63.3383 135.17 60.6359C131.924 64.3278 129.234 67.5778 126.549 70.816ZM77.9669 129.504C79.3094 127.606 80.8717 125.567 82.9959 123.565C80.6209 126.436 79.3067 127.9 77.9669 129.504ZM127.896 70.545C130.602 67.6757 132.737 64.6123 135.079 62.0621C133.197 63.8079 130.848 67.0568 127.896 70.545ZM78.9543 129.658C80.5851 127.867 82.4308 125.281 84.3422 123.295C82.9405 124.884 80.7181 127.223 78.9543 129.658ZM129.242 70.2746C130.77 68.0819 132.826 65.3636 134.989 63.4877C132.42 66.275 130.903 68.1028 129.242 70.2746ZM80.3006 129.387C82.4422 127.122 84.4687 124.464 85.3297 123.448C83.1875 126.174 81.7104 127.699 80.3006 129.387ZM129.152 71.7007C130.893 69.0764 133.133 67.7583 134.899 64.9139C131.837 68.1282 130.483 70.1569 129.152 71.7007ZM81.2881 129.54C82.6181 127.728 84.726 125.62 86.6759 123.178C85.3698 124.85 83.3455 127.249 81.2881 129.54ZM129.062 73.1263C131.455 70.7119 132.985 68.092 135.168 65.9157C133.881 67.5552 131.275 70.1524 129.062 73.1263ZM82.2755 129.694C83.6153 128.049 84.8536 126.93 87.6634 123.331C85.841 125.504 83.7923 127.803 82.2755 129.694ZM128.972 74.5525C131.276 72.2823 133.104 69.8084 135.078 67.3419C133.107 69.2885 131.159 72.1855 128.972 74.5525ZM83.6218 129.423C85.5929 127.375 87.532 125.035 88.6509 123.485C87.4289 124.802 85.695 126.991 83.6218 129.423ZM129.24 75.5544C131.116 73.2734 133.559 70.5388 134.988 68.7681C133.376 70.6253 131.145 73.0053 129.24 75.5544ZM84.6093 129.577C85.9854 127.377 87.6884 125.659 89.9977 123.214C86.8155 126.754 85.8801 128.088 84.6093 129.577ZM129.15 76.9805C130.886 74.2696 133.177 72.314 134.897 70.1937C132.357 73.3011 130.596 75.0317 129.15 76.9805ZM85.5967 129.731C86.9132 128.496 88.2638 127.401 90.9846 123.368C88.5048 126.048 87.291 127.92 85.5967 129.731ZM129.06 78.4067C131.091 76.8272 132.27 74.1689 135.166 71.1955C133.031 73.847 130.892 75.9306 129.06 78.4067ZM86.9436 129.46C88.4191 128.182 89.7463 126.358 91.9721 123.521C90.6697 124.776 89.0233 127.373 86.9436 129.46ZM128.969 79.8323C131.381 77.5463 133.045 74.5717 135.076 72.6217C132.949 75.3066 130.809 77.7595 128.969 79.8323ZM87.931 129.613C89.2898 127.913 91.5209 125.768 93.3189 123.251C91.9172 124.884 90.1171 127.34 87.931 129.613ZM129.239 80.8342C131.449 78.4967 132.579 76.4137 134.986 74.0479C131.956 77.8223 130.676 79.2106 129.239 80.8342ZM88.9179 129.767C90.8239 127.95 91.7935 126.521 94.3063 123.404C91.9031 126.303 90.1785 128.135 88.9179 129.767ZM129.149 82.2604C130.92 80.0982 132.715 78.4978 134.896 75.474C131.8 79.1382 130.705 80.5383 129.149 82.2604ZM90.2648 129.496C91.1426 127.717 92.548 126.649 95.2933 123.558C93.7901 125.508 92.1154 127.375 90.2648 129.496ZM129.058 83.6865C130.235 82.2915 132.32 79.7152 135.164 76.4759C133.394 78.2585 131.277 80.9999 129.058 83.6865ZM91.2522 129.65C93.561 127.442 95.0913 124.526 96.6401 123.287C94.0284 126.666 92.7929 128.273 91.2522 129.65ZM128.968 85.1127C129.943 83.4795 131.608 82.2411 135.074 77.9015C133.506 79.5098 131.395 82.6315 128.968 85.1127ZM92.5985 129.379C93.9676 127.343 96.1331 125.609 97.6275 123.441C96.2291 124.881 94.5539 127.222 92.5985 129.379ZM129.237 86.1146C131.226 83.6622 132.862 81.6969 134.984 79.3277C132.103 82.7978 130.849 84.4287 129.237 86.1146ZM93.586 129.533C95.0034 128.16 96.2606 126.641 98.615 123.594C96.8496 125.737 95.1152 127.505 93.586 129.533ZM129.147 87.5402C131.692 84.9158 133.598 82.5132 134.894 80.7539C133.329 82.3577 131.274 84.8542 129.147 87.5402ZM94.5734 129.686C96.6363 127.164 98.615 124.831 99.9613 123.324C96.7579 126.691 95.8312 128.162 94.5734 129.686ZM129.056 88.9663C131.788 86.075 133.287 83.5541 135.163 81.7557C132.045 85.8368 130.623 87.1278 129.056 88.9663ZM95.9197 129.415C97.8257 127.333 99.5482 124.861 100.949 123.477C99.5042 124.94 97.8268 127.386 95.9197 129.415ZM128.966 90.3925C130.022 89.0455 131.677 86.833 135.073 83.1819C133.533 84.7529 131.438 87.4219 128.966 90.3925ZM96.9072 129.569C98.7969 127.617 100.93 124.616 102.295 123.207C100.301 125.542 98.4424 127.677 96.9072 129.569ZM129.235 91.3944C131.709 88.4611 133.844 86.4823 134.982 84.6075C131.688 88.7791 130.416 90.0604 129.235 91.3944ZM97.8946 129.723C99.3365 127.729 101.087 126.508 103.282 123.36C101.278 125.708 99.4363 127.858 97.8946 129.723ZM129.145 92.8205C131.417 90.3371 133.719 87.8496 134.892 86.0337C132.662 88.6603 130.947 90.6572 129.145 92.8205ZM99.2415 129.452C100.755 128.179 101.847 126.125 104.27 123.513C102.654 125.521 100.854 127.182 99.2415 129.452ZM129.055 94.2461C130.885 92.2033 132.555 89.9586 135.161 87.0355C132.801 89.4987 130.841 92.015 129.055 94.2461ZM100.228 129.606C101.593 127.793 102.569 126.259 105.617 123.243C103.208 126.052 101.572 127.603 100.228 129.606ZM128.965 95.6723C131.259 93.7155 133.054 91.2801 135.071 88.4617C133.439 90.3376 131.4 92.7674 128.965 95.6723ZM101.216 129.759C102.843 127.885 104.966 125.461 106.604 123.396C104.24 126.085 102.935 127.856 101.216 129.759ZM129.233 96.6742C131.543 94.1239 133.426 92.192 134.98 89.8873C133.686 91.6354 131.375 94.1732 129.233 96.6742ZM102.563 129.488C104.168 128.034 104.998 125.874 107.591 123.55C104.853 126.467 103.852 128.244 102.563 129.488ZM129.143 98.1004C130.376 96.5667 131.343 94.9374 134.89 91.3135C133.668 92.5926 131.182 95.622 129.143 98.1004ZM103.55 129.642C104.395 128.369 105.922 126.68 108.938 123.279C107.787 124.814 105.509 127.394 103.55 129.642ZM129.053 99.5265C130.182 97.4922 131.756 96.1294 135.16 92.3154C132.1 95.7832 130.415 97.4685 129.053 99.5265ZM104.896 129.371C106.127 127.917 107.247 126.638 109.925 123.433C107.747 125.904 106.246 127.603 104.896 129.371ZM128.963 100.952C130.326 99.5605 131.453 97.9159 135.069 93.7415C131.347 98.2373 130.185 99.3132 128.963 100.952ZM105.884 129.525C107.752 127.311 109.14 125.315 110.912 123.586C108.782 126.198 107.519 127.86 105.884 129.525ZM129.232 101.954C131.836 99.3891 133.291 96.6702 134.979 95.1677C132.303 98.3532 130.763 100.032 129.232 101.954ZM106.871 129.679C108.974 127.976 110.513 125.698 112.259 123.316C110.111 125.919 108.309 127.842 106.871 129.679ZM129.141 103.38C130.634 102.082 131.78 99.8812 134.889 96.5933C131.758 100.317 130.63 101.883 129.141 103.38ZM108.218 129.408C110.326 126.83 112.201 125.088 113.247 123.469C110.209 126.809 109.387 128.187 108.218 129.408ZM129.051 104.806C130.88 102.352 133.033 99.5367 135.157 97.5952C133.682 98.9919 131.613 101.751 129.051 104.806ZM109.205 129.561C110.491 128.182 111.935 126.135 114.593 123.199C111.841 126.258 110.443 127.966 109.205 129.561ZM128.961 106.232C130.742 104.073 132.587 101.439 135.067 99.0213C131.804 102.585 130.277 104.608 128.961 106.232ZM110.193 129.715C111.299 128.453 112.748 126.553 115.58 123.352C112.86 126.89 111.291 128.122 110.193 129.715ZM129.23 107.234C130.706 104.741 132.823 103.082 134.977 100.448C131.831 104.19 130.582 105.627 129.23 107.234ZM111.539 129.444C112.746 127.435 114.352 125.947 116.568 123.506C114.438 125.893 112.926 127.708 111.539 129.444ZM129.14 108.66C131.09 106.129 132.791 104.06 134.887 101.874C131.882 105.395 130.458 107.087 129.14 108.66ZM112.526 129.598C113.933 128.145 115.575 126.404 117.914 123.235C116.325 125.254 114.237 127.618 112.526 129.598ZM129.05 110.086C130.746 107.675 132.989 104.687 135.156 102.876C132.903 105.681 130.932 108.041 129.05 110.086ZM113.514 129.751C115.595 127.005 117.376 124.881 118.902 123.389C116.349 126.424 115.15 128.001 113.514 129.751ZM128.959 111.512C130.337 109.304 132.06 107.621 135.066 104.301C133.407 106.358 131.046 109.118 128.959 111.512ZM114.861 129.481C117.061 126.775 118.656 124.467 119.889 123.542C118.948 124.753 116.895 126.998 114.861 129.481ZM129.228 112.514C131.148 110.627 133.115 107.822 134.976 105.727C132.293 108.854 130.792 110.496 129.228 112.514ZM115.847 129.634C116.857 128.142 118.694 126.653 121.236 123.272C118.498 126.577 117.009 128.398 115.847 129.634ZM129.138 113.94C131.056 111.687 133.741 108.592 134.885 107.153C133.283 109.268 131.341 111.618 129.138 113.94ZM117.194 129.363C118.841 126.698 121.247 124.963 122.223 123.425C120.53 125.369 118.978 127.159 117.194 129.363ZM129.048 115.366C131.647 112.91 133.56 110.384 135.154 108.155C131.843 111.939 130.39 113.845 129.048 115.366ZM118.182 129.517C119.503 127.25 121.091 125.975 123.21 123.578C120.35 127.045 119.285 128.339 118.182 129.517ZM128.957 116.792C130.633 115.204 131.485 113.641 135.064 109.582C133.468 111.188 131.099 113.743 128.957 116.792ZM119.169 129.671C120.545 128.229 121.019 127.495 124.557 123.308C122.148 126.224 120.519 128.023 119.169 129.671ZM129.227 117.794C130.954 115.345 133.644 112.98 134.974 111.007C132.301 113.889 131.021 115.674 129.227 117.794ZM120.515 129.4C122.504 127.488 123.859 125.428 125.545 123.461C123.735 125.555 122.348 127.516 120.515 129.4ZM129.136 119.22C130.34 117.154 131.737 115.645 135.243 112.009C134.073 113.56 131.445 116.367 129.136 119.22ZM121.503 129.554C122.563 128.559 123.882 126.447 126.891 123.191C125.125 125.155 123.457 127.187 121.503 129.554ZM129.046 120.646C130.429 119.197 131.601 117.764 135.153 113.435C132.544 116.548 130.688 118.644 129.046 120.646ZM122.49 129.707C124.558 127.892 126.037 125.368 127.878 123.344C126.215 125.2 124.562 127.479 122.49 129.707ZM128.956 122.072C130.885 119.975 133.142 117.24 135.062 114.861C133.674 116.624 131.134 119.358 128.956 122.072ZM123.837 129.436C127.231 125.386 130.998 121.878 134.972 116.287C129.205 123.035 126.307 126.1 123.837 129.436ZM124.824 129.59C126.991 127.133 129.48 124.049 135.241 117.289C132.056 120.713 128.597 125.358 124.824 129.59ZM125.812 129.744C127.522 127.516 130.507 124.226 135.151 118.715C131.25 123.571 128.615 126.663 125.812 129.744ZM127.158 129.473C130.156 125.733 133.738 122.032 135.06 120.141C133.471 122.161 130.002 125.521 127.158 129.473ZM128.145 129.626C130.556 126.604 132.734 123.101 134.97 121.567C132.93 123.983 130.65 126.57 128.145 129.626ZM129.492 129.356C132.09 126.325 133.601 124.402 135.239 122.569C133.552 124.411 131.492 126.751 129.492 129.356ZM130.48 129.509C131.433 128.116 132.761 126.78 135.149 123.995C133.085 126.534 131.68 128.005 130.48 129.509ZM131.467 129.663C132.354 128.788 133.198 127.173 135.059 125.421C133.437 127.263 132.525 128.499 131.467 129.663ZM132.454 129.816C133.323 129.111 133.739 128.089 135.328 126.423C134.425 127.485 133.38 128.582 132.454 129.816Z" stroke="white" stroke-width="1.31" stroke-linecap="round"/>
<path d="M132.031 45.7344C100.632 46.2526 68.2107 45.6558 42.9689 45.7344M132.031 45.7344C106.384 46.1039 81.053 45.6722 42.9689 45.7344M132.031 45.7344C133.919 46.2651 134.755 47.3173 135 48.8283M132.031 45.7344C133.772 45.636 135.487 47.7354 135 48.8283M42.9689 45.7344C41.3886 46.2385 39.8399 46.5807 40 48.8283M42.9689 45.7344C41.7312 46.2504 40.0782 46.6028 40 48.8283M40 48.8283C39.4148 71.0049 40.2508 94.2767 40 126.172M40 48.8283C40.2123 68.6334 40.0087 88.4329 40 126.172M40 126.172C39.8914 127.91 41.6318 129.244 42.9689 129.266M40 126.172C39.9691 128.39 41.2594 129.162 42.9689 129.266M42.9689 129.266C62.8076 129.069 83.6794 129.469 132.031 129.266M42.9689 129.266C77.2134 129.55 111.527 129.436 132.031 129.266M132.031 129.266C133.852 129.057 134.917 127.808 135 126.172M132.031 129.266C133.992 129.882 135.543 128.126 135 126.172M135 126.172C134.552 109.747 134.56 92.8511 135 48.8283M135 126.172C135.038 100.372 134.942 74.6379 135 48.8283M129.062 51.9217C128.963 54.3904 128.554 57.15 129.062 64.2967M129.062 51.9217C129.1 57.0544 129.149 61.5145 129.062 64.2967M129.062 51.9217C106.294 51.8136 76.0533 51.4261 45.9378 51.9217M129.062 51.9217C110.882 51.6156 78.3583 52.0461 45.9378 51.9217M129.062 64.2967C112.56 63.8452 95.1538 63.7666 45.9378 64.2967M129.062 64.2967C99.5042 64.5495 70.2263 64.437 45.9378 64.2967M45.9378 64.2967C46.3357 61.2882 45.7945 58.4455 45.9378 51.9217M45.9378 64.2967C46.2412 60.3842 45.7641 56.2601 45.9378 51.9217M45.9378 123.078C45.9085 104.83 45.9524 87.8292 45.9378 70.4844M45.9378 123.078C45.96 112.444 45.6506 101.908 45.9378 70.4844M45.9378 123.078C91.9797 122.954 110.884 123.603 129.062 123.078M45.9378 123.078C73.2598 123.244 101.246 123.144 129.062 123.078M45.9378 70.4844C75.5566 69.9759 105.627 69.9182 129.062 70.4844M45.9378 70.4844C70.3506 70.5693 94.5631 70.0969 129.062 70.4844M129.062 70.4844C129.45 88.3531 129.148 105.889 129.062 123.078M129.062 70.4844C128.984 89.1898 129.282 107.474 129.062 123.078" stroke="white" stroke-linecap="round"/>
</g>
<mask id="mask1_20_2" style="mask-type:luminance" maskUnits="userSpaceOnUse" x="40" y="38" width="95" height="99">
<path d="M135 38H40V137H135V38Z" fill="white"/>
</mask>
<g mask="url(#mask1_20_2)">
<path d="M52.0921 58.5626C52.7197 57.7983 53.2701 56.9028 54.1908 55.2616ZM52.0921 58.5626C52.863 57.4872 53.5019 56.4123 54.1908 55.2616ZM52.5091 59.5294C53.237 58.1626 54.1778 57.0448 55.2076 55.2848ZM52.5091 59.5294C53.3022 58.2961 53.9465 57.3865 55.2076 55.2848ZM52.926 60.4956C54.092 58.734 55.206 56.5322 55.9242 55.7798ZM52.926 60.4956C53.8206 59.1396 54.7049 57.7191 55.9242 55.7798ZM53.6431 60.9906C54.5263 59.1532 55.5545 57.8147 56.9409 55.803ZM53.6431 60.9906C54.7473 59.1011 56.0463 57.4493 56.9409 55.803ZM54.6593 61.0138C55.6061 59.5713 56.4133 57.8651 57.6575 56.2975ZM54.6593 61.0138C55.6859 59.4706 56.7433 57.7497 57.6575 56.2975ZM55.3764 61.5083C56.0615 60.2682 56.802 59.2595 58.0744 57.2643ZM55.3764 61.5083C55.9426 60.4702 56.6261 59.375 58.0744 57.2643Z" stroke="white" stroke-width="0.817" stroke-linecap="round"/>
<path d="M54.8439 61.2033C55.9611 61.0353 56.9143 61.4092 56.9366 60.2903ZM56.9366 60.2903C57.4214 60.0866 57.7634 58.6174 57.8128 58.1094ZM57.8128 58.1094C57.6798 56.9418 57.917 56.16 56.9366 55.9128ZM56.9366 55.9128C56.0952 54.6795 54.1816 55.3284 52.736 55.928ZM52.736 55.928C51.9477 55.9852 51.6584 57.06 51.875 58.1094ZM51.875 58.1094C51.8392 58.9965 51.8327 59.9503 52.7506 60.3061ZM52.7506 60.3061C53.0231 60.9448 53.9612 61.3159 54.8439 61.2033Z" stroke="white" stroke-linecap="round"/>
</g>
<mask id="mask2_20_2" style="mask-type:luminance" maskUnits="userSpaceOnUse" x="40" y="38" width="95" height="99">
<path d="M135 38H40V137H135V38Z" fill="white"/>
</mask>
<g mask="url(#mask2_20_2)">
<path d="M61.1242 58.4907C61.8945 57.5845 62.414 56.2714 63.3244 55.2622ZM61.1242 58.4907C62.0036 57.3389 62.7327 56.0955 63.3244 55.2622ZM61.6258 59.556C62.654 58.071 63.8743 56.5362 64.4546 55.4048ZM61.6258 59.556C62.2284 58.6927 62.8396 57.6993 64.4546 55.4048ZM62.1279 60.6212C62.5997 59.7596 63.3184 58.5354 65.2711 56.0089ZM62.1279 60.6212C62.9026 59.6363 63.5926 58.5032 65.2711 56.0089ZM62.9444 61.2254C64.3346 59.6442 65.4524 57.8306 66.4018 56.1521ZM62.9444 61.2254C63.7728 60.0493 64.6864 58.777 66.4018 56.1521ZM64.0746 61.3685C64.5979 60.1387 65.6402 59.2149 66.9034 57.2173ZM64.0746 61.3685C65.0968 59.6895 66.1912 58.1457 66.9034 57.2173Z" stroke="white" stroke-width="1.401" stroke-linecap="round"/>
<path d="M63.75 61.2033C64.8319 61.3742 65.7901 61.3934 65.8579 60.2903ZM65.8579 60.2903C66.9067 59.5729 67.088 59.2075 66.7189 58.1094ZM66.7189 58.1094C66.2819 56.879 66.8731 56.6589 65.8427 55.9128ZM65.8427 55.9128C64.3129 54.4753 62.4113 55.2 61.6421 55.928ZM61.6421 55.928C61.1095 56.1249 60.6894 57.2982 60.7811 58.1094ZM60.7811 58.1094C61.0873 58.3663 61.5824 59.2205 61.6573 60.3061ZM61.6573 60.3061C62.4363 61.3363 63.3977 61.1609 63.75 61.2033Z" stroke="white" stroke-linecap="round"/>
</g>
<mask id="mask3_20_2" style="mask-type:luminance" maskUnits="userSpaceOnUse" x="40" y="38" width="95" height="99">
<path d="M135 38H40V137H135V38Z" fill="white"/>
</mask>
<g mask="url(#mask3_20_2)">
<path d="M69.9038 58.2933C70.6828 57.0363 71.8407 55.665 72.1675 55.1129ZM69.9038 58.2933C70.5102 57.5856 70.8875 56.9458 72.1675 55.1129ZM70.2507 59.2658C71.3299 57.7876 72.2701 56.7625 73.161 55.1762ZM70.2507 59.2658C71.0368 58.0834 72.0606 56.8338 73.161 55.1762ZM70.5971 60.2382C71.2485 58.9422 72.1181 58.3821 73.8309 55.6944ZM70.5971 60.2382C71.3788 59.2245 72.1811 58.0518 73.8309 55.6944ZM71.2675 60.7559C72.2137 59.4213 73.1659 58.1875 74.5007 56.2121ZM71.2675 60.7559C72.0812 59.5328 72.7435 58.5213 74.5007 56.2121ZM71.9374 61.2741C72.8939 59.6895 73.997 58.8856 75.4942 56.2754ZM71.9374 61.2741C73.2283 59.4044 74.3053 57.8736 75.4942 56.2754ZM72.9308 61.3374C73.6121 60.1704 74.5539 58.945 75.8411 57.2479ZM72.9308 61.3374C73.6278 60.0934 74.618 59.005 75.8411 57.2479ZM74.2478 60.9465C74.947 60.2699 75.34 59.289 76.1879 58.2198ZM74.2478 60.9465C74.909 60.0487 75.5061 59.1492 76.1879 58.2198Z" stroke="white" stroke-width="1.581" stroke-linecap="round"/>
<path d="M72.6561 61.2033C73.8059 61.7283 74.1023 60.4 74.7494 60.2903ZM74.7494 60.2903C75.7422 59.638 75.8997 59.4095 75.625 58.1095ZM75.625 58.1095C75.3074 57.5715 75.0881 56.5571 74.7494 55.9128ZM74.7494 55.9128C73.218 55.2588 71.458 54.6722 70.5482 55.9281ZM70.5482 55.9281C70.5335 56.4819 69.5873 57.5879 69.6878 58.1095ZM69.6878 58.1095C69.8425 59.2618 69.6389 59.3472 70.5634 60.2903ZM70.5634 60.2903C71.3125 61.0851 71.6784 60.856 72.6561 61.2033Z" stroke="white" stroke-linecap="round"/>
</g>
<mask id="mask4_20_2" style="mask-type:luminance" maskUnits="userSpaceOnUse" x="40" y="38" width="95" height="99">
<path d="M135 38H40V137H135V38Z" fill="white"/>
</mask>
<g mask="url(#mask4_20_2)">
<path d="M52.1606 80.2323C52.9249 78.831 53.8689 77.4388 54.1431 76.8538ZM52.1606 80.2323C52.7496 79.3379 53.0785 78.521 54.1431 76.8538ZM52.5851 81.1657C53.0118 80.1305 53.8635 79.1716 55.1343 76.8222ZM52.5851 81.1657C53.2598 79.967 53.958 78.8944 55.1343 76.8222ZM53.0096 82.0997C53.7414 80.6521 55.2054 79.1654 56.125 76.791ZM53.0096 82.0997C53.6507 81.0181 54.3825 79.541 56.125 76.791ZM53.718 82.5512C54.7114 80.5893 55.7022 78.8514 57.1163 76.7594ZM53.718 82.5512C55.13 80.2606 56.2418 78.0673 57.1163 76.7594ZM54.4259 83.002C54.8873 81.4293 55.8791 80.1825 58.1076 76.7283ZM54.4259 83.002C55.7076 80.9185 56.9952 78.8152 58.1076 76.7283ZM55.4172 82.9709C56.3927 80.8964 57.8052 78.6262 59.0988 76.6966ZM55.4172 82.9709C56.6902 81.0028 57.467 79.3288 59.0988 76.6966ZM56.4084 82.9392C57.3899 81.5583 58.4349 79.6462 60.0901 76.6655ZM56.4084 82.9392C57.5663 81.0249 58.462 79.4754 60.0901 76.6655ZM57.1163 83.3907C58.1293 81.8163 58.7074 80.5417 61.0813 76.6338ZM57.1163 83.3907C57.9816 81.6437 59.1227 79.8448 61.0813 76.6338ZM58.1076 83.359C59.532 81.1199 60.571 79.3956 61.7892 77.0852ZM58.1076 83.359C59.5266 80.8263 60.9831 78.5951 61.7892 77.0852ZM59.0988 83.3279C60.3235 81.1289 61.742 79.1099 62.7805 77.0535ZM59.0988 83.3279C60.0895 81.547 61.1128 79.67 62.7805 77.0535ZM60.0895 83.2962C61.5791 81.1776 62.851 79.1071 63.7717 77.0224ZM60.0895 83.2962C61.4662 81.1697 62.6165 78.986 63.7717 77.0224ZM61.0808 83.2651C62.7153 80.8919 64.0274 78.5917 64.763 76.9907ZM61.0808 83.2651C62.0476 81.7688 62.7034 80.5796 64.763 76.9907ZM62.072 83.2334C62.908 80.9123 64.675 79.5987 65.7542 76.9596ZM62.072 83.2334C63.1382 81.7965 63.8564 80.1005 65.7542 76.9596ZM63.0633 83.2023C63.7375 82.1133 64.928 80.1429 66.7455 76.928ZM63.0633 83.2023C64.1094 81.5928 64.9921 79.7967 66.7455 76.928ZM64.0546 83.1706C65.4133 81.1572 66.233 79.6077 67.7368 76.8968ZM64.0546 83.1706C64.7619 81.883 65.7602 80.4891 67.7368 76.8968ZM65.0458 83.1389C66.125 80.7923 67.7536 79.1784 68.7275 76.8652ZM65.0458 83.1389C66.1071 81.7201 66.7298 80.0162 68.7275 76.8652ZM66.0371 83.1078C67.4545 80.7799 68.3062 78.5962 69.7187 76.834ZM66.0371 83.1078C67.449 80.5632 68.791 78.3247 69.7187 76.834ZM67.0283 83.0761C68.2394 80.5949 70.0537 78.1318 70.71 76.8024ZM67.0283 83.0761C67.9447 81.5923 68.6379 80.5321 70.71 76.8024ZM68.0196 83.045C69.424 81.1929 70.2453 79.2355 71.7012 76.7707ZM68.0196 83.045C68.7845 81.6681 69.7003 80.2855 71.7012 76.7707ZM69.0108 83.0133C69.9777 81.396 70.4744 79.911 72.6925 76.7396ZM69.0108 83.0133C70.14 81.009 71.553 79.0154 72.6925 76.7396ZM70.0021 82.9822C71.1785 81.9243 71.4244 80.4557 73.6838 76.7079ZM70.0021 82.9822C70.8484 81.4141 72.0172 79.8012 73.6838 76.7079ZM70.9928 82.9505C71.6643 81.6737 72.5318 80.2255 74.675 76.6768ZM70.9928 82.9505C71.9461 81.5679 72.7354 80.0943 74.675 76.6768ZM71.9841 82.9194C72.8814 81.4984 74.3281 79.5263 75.6663 76.6451ZM71.9841 82.9194C72.693 81.7625 73.5627 80.4512 75.6663 76.6451ZM72.6925 83.3703C74.0621 81.1306 74.9937 79.4273 76.6575 76.614ZM72.6925 83.3703C73.7978 81.0905 75.0224 79.21 76.6575 76.614ZM73.6832 83.3392C74.6034 80.9722 75.7314 79.4431 77.3654 77.0649ZM73.6832 83.3392C74.5952 81.7592 75.7119 80.0445 77.3654 77.0649ZM74.6745 83.3075C75.8568 81.6794 76.4713 79.8363 78.3567 77.0337ZM74.6745 83.3075C76.1793 81.1148 77.442 78.7298 78.3567 77.0337ZM75.6657 83.2764C76.942 80.979 78.1232 78.8706 79.3479 77.0021ZM75.6657 83.2764C76.4947 81.7773 77.1988 80.4337 79.3479 77.0021ZM76.657 83.2447C78.0597 81.0062 79.4831 79.0624 80.3392 76.9709ZM76.657 83.2447C77.5028 81.5804 78.5195 79.9692 80.3392 76.9709ZM77.6482 83.2136C79.1905 81.4424 80.0048 78.8503 81.3304 76.9393ZM77.6482 83.2136C79.0342 80.9756 80.457 78.6794 81.3304 76.9393ZM78.6395 83.1819C80.1492 80.8653 81.0992 79.2892 82.3212 76.9082ZM78.6395 83.1819C79.7187 81.0973 81.0916 78.8938 82.3212 76.9082ZM79.6308 83.1508C81.0948 81.3547 81.6209 79.5523 83.3124 76.8765ZM79.6308 83.1508C80.5466 81.8927 81.141 80.1565 83.3124 76.8765ZM80.622 83.1191C81.8608 80.9983 82.9818 78.6698 84.3037 76.8454ZM80.622 83.1191C81.5715 81.2342 82.7169 79.6615 84.3037 76.8454ZM81.6133 83.088C82.8065 81.3496 83.3064 79.9658 85.2949 76.8137ZM81.6133 83.088C82.7435 81.1946 83.9258 79.4205 85.2949 76.8137ZM82.6045 83.0563C83.3374 81.0113 84.5794 79.4878 86.2862 76.7826ZM82.6045 83.0563C84.029 80.7058 85.3829 78.2766 86.2862 76.7826ZM83.5958 83.0252C85.1245 81.1261 86.1532 78.624 86.9941 77.2334ZM83.5958 83.0252C84.2814 81.7716 85.0175 80.355 86.9941 77.2334ZM84.5865 82.9935C85.5908 81.5176 86.3584 80.2221 87.702 77.6849ZM84.5865 82.9935C85.8172 81.1533 86.9034 79.2055 87.702 77.6849ZM85.5778 82.9619C86.7997 80.845 88.2459 79.0867 88.6932 77.6532ZM85.5778 82.9619C86.4252 81.6443 87.132 80.1655 88.6932 77.6532ZM86.569 82.9307C87.3632 81.7546 88.1949 80.307 88.8349 79.0697ZM86.569 82.9307C87.4208 81.3275 88.3246 79.9466 88.8349 79.0697Z" stroke="white" stroke-width="1.519" stroke-linecap="round"/>
<path d="M86.0158 76.6717C75.3275 77.1169 64.0507 77.2877 54.8439 76.6717M86.0158 76.6717C77.9891 76.713 69.8968 76.6055 54.8439 76.6717M86.0158 76.6717C88.0201 77.1474 89.4347 77.8297 88.9842 79.7655M86.0158 76.6717C87.1634 76.6575 88.7692 78.1182 88.9842 79.7655M54.8439 76.6717C53.2946 77.2187 51.6117 78.5606 51.875 79.7655M54.8439 76.6717C53.0193 76.6468 51.8978 77.9377 51.875 79.7655M51.875 79.7655C51.7225 81.5334 53.129 83.2815 54.8439 82.8594M51.875 79.7655C52.2691 81.0972 53.3896 83.1265 54.8439 82.8594M54.8439 82.8594C61.1644 83.2747 67.9702 82.7321 86.0158 82.8594M54.8439 82.8594C62.5758 82.6824 69.7741 82.9171 86.0158 82.8594M86.0158 82.8594C88.0646 82.6213 88.8251 81.3908 88.9842 79.7655M86.0158 82.8594C87.3409 82.2767 88.4782 81.1086 88.9842 79.7655" stroke="white" stroke-linecap="round"/>
</g>
<mask id="mask5_20_2" style="mask-type:luminance" maskUnits="userSpaceOnUse" x="40" y="38" width="95" height="99">
<path d="M135 38H40V137H135V38Z" fill="white"/>
</mask>
<g mask="url(#mask5_20_2)">
<path d="M52.1714 92.0942C53.0427 91.305 53.6485 90.4796 54.681 89.1208ZM52.1714 92.0942C52.762 91.4832 53.2691 90.7908 54.681 89.1208ZM52.5085 93.1566C53.4422 92.2865 54.4552 90.9016 55.3764 89.7583ZM52.5085 93.1566C53.2799 92.2017 54.1289 91.1036 55.3764 89.7583ZM52.8456 94.219C53.4509 93.2878 54.3483 92.0574 56.7895 89.5462ZM52.8456 94.219C54.2201 92.4562 55.6316 90.8332 56.7895 89.5462ZM53.5416 94.8566C55.3531 93.0485 56.5865 90.8485 57.8432 89.7583ZM53.5416 94.8566C54.6908 93.3585 55.8845 92.0529 57.8432 89.7583ZM54.5958 95.0693C55.7011 93.7478 57.1347 92.0387 59.2557 89.5462ZM54.5958 95.0693C56.384 93.096 58.1168 91.2201 59.2557 89.5462ZM55.2912 95.7063C56.9447 93.9689 58.1417 92.5196 60.3099 89.7589ZM55.2912 95.7063C57.1195 93.7698 58.6651 91.6342 60.3099 89.7589ZM56.7037 95.4941C58.5456 93.8139 59.7888 91.9143 61.7224 89.5468ZM56.7037 95.4941C58.2878 93.4389 59.8897 91.5364 61.7224 89.5468ZM57.7579 95.7068C59.31 93.1402 61.3582 91.2026 62.7767 89.7595ZM57.7579 95.7068C59.5363 93.6708 61.1785 91.4572 62.7767 89.7595ZM59.1705 95.4947C60.5808 93.2714 62.743 91.2009 64.1892 89.5473ZM59.1705 95.4947C60.431 94.0832 61.8429 92.3974 64.1892 89.5473ZM60.2247 95.7074C62.3706 93.2318 64.1067 91.8102 65.2434 89.76ZM60.2247 95.7074C61.6095 94.2032 62.7946 92.7176 65.2434 89.76ZM61.6372 95.4952C62.3559 93.9899 63.7989 92.9965 66.6559 89.5479ZM61.6372 95.4952C62.7908 93.9712 64.0426 92.5564 66.6559 89.5479ZM62.6914 95.708C64.7016 93.8309 66.5691 91.4181 67.7101 89.7606ZM62.6914 95.708C63.7782 94.4628 64.6864 93.1521 67.7101 89.7606ZM64.1039 95.4958C66.3872 93.5147 67.7671 91.0646 69.1227 89.5485ZM64.1039 95.4958C65.9703 93.2646 67.7775 91.1868 69.1227 89.5485ZM65.1576 95.7085C66.4393 93.9791 67.7471 92.321 70.1769 89.7606ZM65.1576 95.7085C66.9865 93.5469 68.7964 91.6048 70.1769 89.7606ZM66.5707 95.4964C68.0076 93.724 69.9891 91.6127 71.5894 89.5485ZM66.5707 95.4964C67.9588 93.8818 69.045 92.2848 71.5894 89.5485ZM67.6244 95.7091C69.4826 93.8004 71.1573 91.5104 72.6431 89.7612ZM67.6244 95.7091C69.5662 93.453 71.6171 91.0793 72.6431 89.7612ZM69.0369 95.4964C70.4711 93.4621 72.2262 91.9929 74.0561 89.549ZM69.0369 95.4964C69.9782 94.0883 71.3489 92.9201 74.0561 89.549ZM70.0911 95.7091C71.6285 93.7478 73.3857 91.8028 75.1098 89.7617ZM70.0911 95.7091C72.1887 93.4983 74.0578 90.9045 75.1098 89.7617ZM71.5036 95.4969C73.3423 93.939 74.8221 92.2084 76.5223 89.5496ZM71.5036 95.4969C73.3027 93.2307 75.0355 91.279 76.5223 89.5496ZM72.5579 95.7096C74.0127 93.8818 75.8031 91.6156 77.5766 89.7623ZM72.5579 95.7096C74.4188 93.5401 76.4404 91.0855 77.5766 89.7623ZM73.9704 95.4975C74.9475 94.094 75.7205 93.1685 78.9891 89.5502ZM73.9704 95.4975C75.5414 93.4745 77.5337 91.3412 78.9891 89.5502ZM75.0246 95.7102C76.5365 94.2982 77.4903 92.2192 80.0433 89.7629ZM75.0246 95.7102C76.3997 93.9441 77.6547 92.5224 80.0433 89.7629ZM76.4371 95.4981C78.0071 93.6284 79.7426 91.8102 81.4558 89.5507ZM76.4371 95.4981C77.4349 93.9441 78.9006 92.7589 81.4558 89.5507ZM77.4913 95.7108C78.6438 94.4102 79.8359 93.0491 82.5101 89.7634ZM77.4913 95.7108C79.1145 93.5724 80.7398 91.5845 82.5101 89.7634ZM78.9039 95.4986C80.7431 93.3195 82.5681 90.6256 83.9226 89.5507ZM78.9039 95.4986C79.7974 94.2874 81.0199 92.8816 83.9226 89.5507ZM79.9581 95.7113C81.2658 94.215 82.4683 92.837 84.9768 89.7634ZM79.9581 95.7113C81.7463 93.556 83.6875 91.3763 84.9768 89.7634ZM81.3706 95.4992C82.2848 94.0561 83.6093 92.2294 86.3893 89.5513ZM81.3706 95.4992C82.5747 94.0442 83.8618 92.4019 86.3893 89.5513ZM82.4243 95.7113C84.0936 93.8156 85.5408 92.166 87.4435 89.764ZM82.4243 95.7113C83.5784 94.4408 84.6728 93.1758 87.4435 89.764ZM83.8373 95.4992C85.321 93.8072 86.5375 92.4726 88.4972 89.9767ZM83.8373 95.4992C85.081 94.15 86.3828 92.3782 88.4972 89.9767ZM84.891 95.7119C86.5782 94.1636 87.8561 92.0421 88.8343 91.0391ZM84.891 95.7119C85.6706 94.6919 86.6808 93.5073 88.8343 91.0391ZM86.3035 95.4998C86.9338 94.6048 87.7009 93.7772 89.1715 92.1015ZM86.3035 95.4998C87.2172 94.3632 88.2318 93.384 89.1715 92.1015Z" stroke="white" stroke-width="1.396" stroke-linecap="round"/>
<path d="M86.0158 89.0467C77.2758 89.2311 69.5575 88.5217 54.8439 89.0467ZM54.8439 89.0467C53.4287 88.9805 52.1443 90.25 51.875 92.1406ZM51.875 92.1406C52.078 94.0176 53.1936 94.8362 54.8439 95.2345ZM54.8439 95.2345C67.1331 95.0942 79.6291 94.8526 86.0158 95.2345ZM86.0158 95.2345C87.4691 95.2107 88.5624 93.6516 88.9842 92.1406ZM88.9842 92.1406C88.9836 90.0944 87.8653 89.4415 86.0158 89.0467Z" stroke="white" stroke-linecap="round"/>
</g>
<mask id="mask6_20_2" style="mask-type:luminance" maskUnits="userSpaceOnUse" x="40" y="38" width="95" height="99">
<path d="M135 38H40V137H135V38Z" fill="white"/>
</mask>
<g mask="url(#mask6_20_2)">
<path d="M52.4178 104.698C53.0861 103.945 53.592 102.804 54.1392 101.817ZM52.4178 104.698C52.9857 103.621 53.693 102.51 54.1392 101.817ZM52.9151 105.688C53.7142 104.143 54.63 102.396 55.2108 101.845ZM52.9151 105.688C53.8618 104.268 54.6501 102.583 55.2108 101.845ZM53.1263 107.157C54.3586 105.223 55.0979 103.195 56.2819 101.874ZM53.1263 107.157C54.0073 105.76 54.8086 104.33 56.2819 101.874ZM54.1979 107.186C55.023 105.675 56.195 103.674 57.3535 101.903ZM54.1979 107.186C55.2678 105.218 56.6082 103.247 57.3535 101.903ZM54.9823 107.695C56.1066 106.053 57.0625 103.855 58.4251 101.932ZM54.9823 107.695C56.2444 105.547 57.4941 103.607 58.4251 101.932ZM56.0539 107.724C57.0207 106.748 57.7444 104.779 59.7839 101.48ZM56.0539 107.724C57.4203 105.27 58.6433 103.298 59.7839 101.48ZM57.1255 107.753C58.1792 105.897 59.5445 103.523 60.8555 101.509ZM57.1255 107.753C58.6118 105.636 59.7567 103.081 60.8555 101.509ZM58.1971 107.781C59.6992 105.804 60.8321 103.837 61.9265 101.538ZM58.1971 107.781C59.215 106.269 60.2779 104.386 61.9265 101.538ZM59.2687 107.81C60.6253 105.797 61.6366 103.793 62.9981 101.567ZM59.2687 107.81C60.8001 105.607 62.2327 103.173 62.9981 101.567ZM60.3403 107.839C61.6263 105.39 63.1849 103.206 64.0697 101.596ZM60.3403 107.839C61.9694 105.563 63.288 102.811 64.0697 101.596ZM61.4114 107.868C61.9873 106.624 62.7728 105.127 65.1413 101.625ZM61.4114 107.868C62.7224 105.858 63.6827 103.858 65.1413 101.625ZM62.483 107.897C63.6452 106.622 64.061 104.9 66.2129 101.654ZM62.483 107.897C63.6979 105.7 65.1386 103.105 66.2129 101.654ZM63.5546 107.926C64.5708 105.899 65.9985 104.335 67.2845 101.682ZM63.5546 107.926C64.5854 106.312 65.3796 105.003 67.2845 101.682ZM64.9133 107.474C65.8134 105.183 67.3328 103.238 68.3561 101.711ZM64.9133 107.474C66.2167 105.408 67.569 103.057 68.3561 101.711ZM65.9849 107.503C67.3019 105.31 68.4674 102.963 69.4277 101.74ZM65.9849 107.503C67.1266 105.936 67.905 103.991 69.4277 101.74ZM67.056 107.531C68.2204 106.122 68.7855 104.253 70.4993 101.768ZM67.056 107.531C67.8062 105.942 68.7633 104.598 70.4993 101.768ZM68.1276 107.56C68.9668 105.628 69.9798 104.155 71.5704 101.797ZM68.1276 107.56C69.2182 105.381 70.6844 103.237 71.5704 101.797ZM69.1992 107.589C70.3359 105.619 71.2268 103.666 72.642 101.826ZM69.1992 107.589C70.0363 105.816 71.2257 104.49 72.642 101.826ZM70.2708 107.618C70.8066 106.427 71.9971 105.041 73.7136 101.855ZM70.2708 107.618C71.1323 106.385 71.8961 104.861 73.7136 101.855ZM71.3424 107.647C72.193 106.414 72.7549 104.862 74.7852 101.884ZM71.3424 107.647C72.091 106.18 72.9406 104.871 74.7852 101.884ZM72.414 107.676C73.4883 105.508 75.4192 103.165 75.8568 101.913ZM72.414 107.676C73.408 105.96 74.599 104.025 75.8568 101.913ZM73.4856 107.704C74.2233 106.482 75.1087 105.366 76.9284 101.942ZM73.4856 107.704C74.5995 105.996 75.4708 104.651 76.9284 101.942ZM74.5572 107.733C75.5875 106.788 75.9561 104.985 78.2866 101.49ZM74.5572 107.733C75.8068 105.977 76.6917 103.84 78.2866 101.49ZM75.6288 107.762C76.5533 106.395 77.4099 105.179 79.3582 101.519ZM75.6288 107.762C76.9664 105.547 78.1884 103.444 79.3582 101.519ZM76.7004 107.791C77.8198 105.618 79.3778 103.422 80.4298 101.548ZM76.7004 107.791C77.829 105.953 78.7193 104.335 80.4298 101.548ZM77.7714 107.82C78.3892 106.625 79.622 105.047 81.5014 101.577ZM77.7714 107.82C78.4506 106.399 79.3387 105.281 81.5014 101.577ZM78.843 107.849C80.153 106.161 80.856 104.633 82.573 101.605ZM78.843 107.849C80.4152 105.5 81.9227 102.919 82.573 101.605ZM79.9146 107.877C81.0177 106.187 82.0079 104.579 83.6446 101.634ZM79.9146 107.877C80.5525 106.423 81.6757 105.169 83.6446 101.634ZM80.9862 107.906C82.1778 105.818 82.965 103.783 84.7162 101.663ZM80.9862 107.906C82.0893 106.015 83.5724 103.799 84.7162 101.663ZM82.0578 107.935C83.3336 105.934 84.5164 103.365 85.7878 101.692ZM82.0578 107.935C83.2044 105.831 84.466 103.777 85.7878 101.692ZM83.4161 107.483C84.3916 105.82 85.4664 104.255 86.8589 101.72ZM83.4161 107.483C84.5713 105.578 85.8568 103.316 86.8589 101.72ZM84.4877 107.512C85.5202 105.589 86.614 104.028 87.6438 102.23ZM84.4877 107.512C85.7357 105.643 86.8399 103.529 87.6438 102.23ZM85.5593 107.541C86.5408 105.821 87.6802 104.167 88.4283 102.739ZM85.5593 107.541C86.4583 106.036 87.4202 104.462 88.4283 102.739ZM86.3442 108.05C86.9783 107.05 87.7388 105.737 88.9261 103.728ZM86.3442 108.05C86.9191 107.032 87.4213 106.16 88.9261 103.728Z" stroke="white" stroke-width="1.494" stroke-linecap="round"/>
<path d="M86.0158 101.422C77.4599 101.96 69.7925 101.211 54.8439 101.422M86.0158 101.422C79.4907 101.538 73.3358 101.483 54.8439 101.422M86.0158 101.422C87.3746 101.092 89.2632 102.832 88.9842 104.516M86.0158 101.422C87.9006 101.316 88.4516 103.122 88.9842 104.516M54.8439 101.422C53.4471 101.612 51.8913 102.804 51.875 104.516M54.8439 101.422C53.382 101.374 52.2306 102.752 51.875 104.516M51.875 104.516C52.2702 106.126 53.5226 107.972 54.8439 107.609M51.875 104.516C51.9678 106.622 52.9352 107.719 54.8439 107.609M54.8439 107.609C63.6479 107.742 72.357 107.117 86.0158 107.609M54.8439 107.609C65.8454 107.459 76.9365 107.6 86.0158 107.609M86.0158 107.609C87.6992 107.529 88.8441 106.681 88.9842 104.516M86.0158 107.609C88.2301 107.099 89.0623 105.811 88.9842 104.516" stroke="white" stroke-linecap="round"/>
</g>
<mask id="mask7_20_2" style="mask-type:luminance" maskUnits="userSpaceOnUse" x="40" y="38" width="95" height="99">
<path d="M135 38H40V137H135V38Z" fill="white"/>
</mask>
<g mask="url(#mask7_20_2)">
<path d="M101.52 83.5473C98.2969 87.9395 97.013 90.4292 95.4262 92.2192C97.4647 89.2831 99.4521 86.3465 101.52 83.5473ZM101.52 83.5473C103.026 81.9616 103.829 80.3607 106.011 77.1576C104.844 78.7823 103.126 81.2839 101.52 83.5473ZM95.227 80.1468C96.1499 78.9571 96.9359 78.0367 97.4723 76.9522C96.76 77.9615 95.9311 79.1364 95.227 80.1468ZM95.3931 81.6759C96.5358 80.3007 97.5363 78.5945 98.6003 77.1118C96.9946 79.4849 96.2025 80.6395 95.3931 81.6759ZM95.2384 83.6616C96.8398 80.9558 98.4239 78.6629 99.7284 77.2719C98.2154 79.6303 96.6585 81.4315 95.2384 83.6616ZM95.404 85.1907C96.8295 82.7632 99.1356 80.2385 101.177 76.9748C99.6513 78.7846 97.7095 82.1811 95.404 85.1907ZM95.2493 87.1758C97.6737 83.9314 99.9721 80.1485 102.305 77.1349C100.223 80.441 97.5922 83.6673 95.2493 87.1758ZM95.4154 88.7049C97.1672 85.7157 99.2648 82.8713 103.433 77.2945C101.542 79.6575 98.4114 84.4615 95.4154 88.7049ZM95.2601 90.6906C97.6818 87.9135 100.368 84.2884 104.882 76.998C102.224 80.5388 98.5466 85.5845 95.2601 90.6906ZM95.2715 94.2048C97.0108 92.4522 97.811 90.1051 101.686 85.0764C99.0911 88.9007 97.1248 91.2603 95.2715 94.2048ZM102.969 83.2509C104.035 81.4655 104.748 80.3629 107.139 77.3177C106.375 78.4474 104.709 80.9547 102.969 83.2509ZM95.4376 95.7339C98.2486 92.9116 99.7398 88.7847 101.531 87.0621C99.9754 89.3968 97.9706 92.2882 95.4376 95.7339ZM104.097 83.4104C105.124 81.7359 106.61 80.0818 108.588 77.0207C105.833 80.8206 104.871 82.064 104.097 83.4104ZM95.2824 97.719C97.5895 94.6919 99.2165 92.3679 101.697 88.5907C98.8772 92.7617 97.1618 95.5077 95.2824 97.719ZM105.225 83.5705C106.282 81.8304 107.661 79.6354 109.716 77.1808C107.283 80.6922 106.212 82.1472 105.225 83.5705ZM95.4485 99.2482C97.2318 96.694 99.3772 94.0272 101.543 90.5763C97.893 95.7113 96.7785 97.189 95.4485 99.2482ZM106.674 83.2735C108.334 81.1708 109.173 79.0646 110.844 77.3403C108.426 80.8183 107.504 82.0131 106.674 83.2735ZM95.2938 101.234C97.1259 99.2781 97.9603 98.0404 101.708 92.1054C98.818 96.1164 96.8974 98.9161 95.2938 101.234ZM107.802 83.4336C109.589 81.4134 110.295 79.2383 112.293 77.0439C110.702 79.2388 109.245 81.3014 107.802 83.4336ZM95.1391 103.219C96.3106 101.166 97.9684 99.2583 101.553 94.0905C98.8175 98.5993 96.7351 100.738 95.1391 103.219ZM108.931 83.5931C110.898 81.5843 112.199 79.1325 113.421 77.2034C111.976 79.2338 110.345 81.3218 108.931 83.5931ZM95.3046 104.748C96.0934 102.489 98.1221 101.497 101.72 95.6197C99.4124 98.5071 97.6992 101.429 95.3046 104.748ZM110.379 83.2967C111.823 81.569 112.792 79.6445 114.549 77.3629C113.145 79.701 111.823 81.306 110.379 83.2967ZM95.7916 105.821C98.1514 102.813 100.285 99.8201 101.565 97.6053C100.067 100.065 97.9967 102.764 95.7916 105.821ZM111.508 83.4562C112.676 82.0346 114.077 79.6156 115.998 77.0665C114.842 79.0606 112.963 81.1651 111.508 83.4562ZM96.278 106.893C97.7366 104.736 98.6351 102.919 101.73 99.1339C100.184 101.307 98.2334 104.212 96.278 106.893ZM112.636 83.6163C114.324 81.4734 115.721 79.0918 117.126 77.226C115.432 79.4753 114.212 81.5226 112.636 83.6163ZM97.0858 107.509C98.0634 106.23 98.5439 105.257 101.255 101.576C99.2366 104.539 98.1025 105.839 97.0858 107.509ZM114.085 83.3193C114.935 81.8807 116.194 80.8856 118.254 77.3861C116.695 79.8153 115.324 81.3897 114.085 83.3193ZM98.2138 107.669C99.236 106.205 100.576 104.934 102.384 101.736C100.355 104.862 99.1492 106.069 98.2138 107.669ZM115.213 83.4794C116.086 82.3559 117.012 80.8466 119.703 77.0891C118.402 78.6777 116.817 81.0299 115.213 83.4794ZM99.3419 107.829C101.01 105.494 102.213 103.557 103.512 101.896C101.827 104.54 100.485 106.272 99.3419 107.829ZM116.341 83.639C117.675 82.3537 118.586 80.7781 120.831 77.2492C119.076 80.0919 117.502 81.7195 116.341 83.639ZM100.47 107.988C101.505 106.341 102.602 104.934 104.96 101.599C102.753 104.821 101.38 106.331 100.47 107.988ZM117.79 83.3425C119.261 81.5187 120.369 79.546 121.959 77.4088C120.692 79.2287 119.158 81.4689 117.79 83.3425ZM101.919 107.692C103.136 106.56 103.556 104.952 106.089 101.759C103.902 104.91 102.847 106.312 101.919 107.692ZM117.956 84.8711C118.772 83.6135 119.951 81.8626 122.767 78.0248C121.103 80.368 119.372 82.7378 117.956 84.8711ZM103.047 107.852C105.054 105.658 106.746 103.133 107.537 101.462C106.477 102.969 104.698 105.632 103.047 107.852ZM117.801 86.8567C119.096 85.2914 120.667 82.4159 123.254 79.0974C121.383 81.7749 119.753 84.3433 117.801 86.8567ZM104.175 108.012C105.019 106.317 106.486 104.696 108.665 101.622C107.515 103.45 105.705 105.54 104.175 108.012ZM117.646 88.8418C119.315 85.615 121.409 82.7932 123.74 80.17C121.232 84.2069 119.475 86.5298 117.646 88.8418ZM105.624 107.715C106.851 105.981 107.554 104.454 109.794 101.781C108.294 103.975 106.955 105.717 105.624 107.715ZM117.812 90.371C120.113 87.1351 121.925 84.5294 123.585 82.1557C122.329 83.8766 120.097 86.9371 117.812 90.371ZM106.752 107.875C107.812 106.211 109.471 104.523 111.242 101.485C108.72 104.836 107.667 106.229 106.752 107.875ZM117.657 92.3566C119.181 89.2129 121.963 86.8573 123.751 83.6848C121.115 87.879 119.389 89.8522 117.657 92.3566ZM108.201 107.578C109.412 106.025 110.896 103.81 112.37 101.645C110.767 104.142 109.329 105.786 108.201 107.578ZM117.823 93.8858C119.944 91.8814 121.138 88.929 123.596 85.6699C122.132 87.5848 120.095 90.5384 117.823 93.8858ZM109.329 107.738C110.596 105.627 112.286 103.146 113.499 101.805C111.962 104.29 110.735 106.054 109.329 107.738ZM117.668 95.8708C120.054 92.1422 121.762 89.1275 123.762 87.199C120.953 90.8252 119.397 93.2714 117.668 95.8708ZM110.457 107.897C111.425 106.633 112.349 104.893 114.947 101.508C114 103.21 112.157 105.49 110.457 107.897ZM117.834 97.4C119.05 95.64 120.669 93.0836 123.608 89.1847C122.646 90.875 120.096 94.1844 117.834 97.4ZM111.906 107.601C113.446 105.545 114.946 103.633 116.076 101.668C114.946 103.224 113.366 105.485 111.906 107.601ZM117.68 99.3856C118.763 97.1431 120.36 95.2915 123.774 90.7138C120.213 95.4805 118.906 97.6404 117.68 99.3856ZM113.034 107.76C115.466 104.165 117.86 101.346 123.618 92.6989C119.706 98.4895 116.137 103.114 113.034 107.76ZM114.162 107.921C117.651 103.795 120.474 98.7848 123.785 94.228C119.912 99.2945 117.074 103.877 114.162 107.921ZM115.611 107.624C117.448 104.63 119.219 102.988 123.63 96.2131C119.527 101.852 117.401 104.543 115.611 107.624ZM116.739 107.784C118.56 104.56 121.157 100.761 123.795 97.7422C122.07 99.7533 119.465 103.723 116.739 107.784ZM117.867 107.943C119.657 104.994 122.083 102.201 123.641 99.7279C122.109 102.098 119.678 105.291 117.867 107.943ZM119.316 107.647C120.865 105.492 122.453 103.273 123.807 101.257C122.445 103.166 120.849 105.228 119.316 107.647ZM120.444 107.806C121.005 106.861 121.851 105.593 123.652 103.242C122.839 104.553 121.542 106.278 120.444 107.806Z" stroke="white" stroke-width="0.658" stroke-linecap="round"/>
<path d="M120.156 76.6717C112.25 77.0931 104.901 77.148 97.8908 76.6717M120.156 76.6717C114.251 76.3713 108.522 76.5698 97.8908 76.6717M120.156 76.6717C121.353 76.4804 123.246 78.0215 123.125 79.7656M120.156 76.6717C121.659 77.0875 123.607 78.4525 123.125 79.7656M97.8908 76.6717C96.7584 76.907 95.265 78.4655 94.9219 79.7656M97.8908 76.6717C96.4561 76.855 95.1081 78.2822 94.9219 79.7656M94.9219 79.7656C94.6017 89.08 94.6684 99.4207 94.9219 104.516M94.9219 79.7656C95.1727 87.4146 95.1662 95.4505 94.9219 104.516M94.9219 104.516C94.8736 105.674 96.4799 107.59 97.8908 107.609M94.9219 104.516C94.353 106.761 96.7568 107.602 97.8908 107.609M97.8908 107.609C104.268 107.301 110.63 107.49 120.156 107.609M97.8908 107.609C105.116 107.805 112.269 107.356 120.156 107.609M120.156 107.609C121.424 108.142 123.09 106.503 123.125 104.516M120.156 107.609C122.071 107.441 123.418 106.503 123.125 104.516M123.125 104.516C123.225 94.9861 122.573 84.6669 123.125 79.7656M123.125 104.516C123.318 98.1705 123.193 91.6354 123.125 79.7656M117.188 101.422C111.477 101.699 106.631 101.557 100.859 101.422M117.188 101.422C113.389 101.146 109.611 101.129 100.859 101.422M117.188 101.422C117.582 93.0881 116.872 87.6397 117.188 82.8594M117.188 101.422C117.303 94.503 117.376 88.585 117.188 82.8594M100.859 101.422C100.638 95.9733 100.351 90.9299 100.859 82.8594M100.859 101.422C100.973 95.4794 100.885 89.1457 100.859 82.8594M100.859 82.8594C104.286 82.9426 109.112 83.0518 117.188 82.8594M100.859 82.8594C105.867 82.8719 110.504 82.636 117.188 82.8594" stroke="white" stroke-linecap="round"/>
</g>
<path d="M76.1577 19.9258C86.8991 17.0988 101.123 18.8674 111.755 22.736C122.387 26.6047 132.634 34.3522 139.949 43.1377C147.264 51.9233 153.825 64.1114 155.646 75.4493C157.467 86.7872 155.13 100.349 150.874 111.165C146.618 121.982 139.014 133.174 130.11 140.348C121.206 147.522 108.657 152.423 97.4489 154.208C86.241 155.993 73.553 155.057 62.8633 151.058C52.1735 147.059 40.5677 139.04 33.3104 130.214C26.0531 121.388 21.0329 109.457 19.3197 98.1013C17.6065 86.7453 19.0543 72.8562 23.0315 62.0776C27.0087 51.2991 34.0736 40.5791 43.183 33.4298C52.2924 26.2805 71.814 21.4785 77.6881 19.1817C83.5622 16.8848 78.3072 18.4347 78.4277 19.6487M71.9694 20.8981C82.3276 17.5663 96.0273 19.048 107.092 22.3724C118.156 25.6967 130.612 32.54 138.356 40.8443C146.099 49.1486 151.229 61.0472 153.553 72.1981C155.876 83.3491 155.709 97.0525 152.297 107.75C148.885 118.447 141.292 128.777 133.081 136.383C124.87 143.988 114.193 150.918 103.031 153.382C91.87 155.847 77.181 154.445 66.1129 151.171C55.0449 147.897 44.4405 141.988 36.6229 133.738C28.8052 125.489 21.6963 112.999 19.2068 101.672C16.7173 90.3458 18.3422 76.7681 21.6858 65.7781C25.0294 54.7882 30.9376 43.3875 39.2685 35.7328C47.5994 28.0781 66.1706 22.2229 71.6713 19.8498C77.1721 17.4767 72.0574 20.2865 72.2728 21.4942" stroke="white"/>
</svg>
