<svg width="175" height="171" viewBox="0 0 175 171" fill="none" xmlns="http://www.w3.org/2000/svg">
<mask id="mask0_17_75" style="mask-type:luminance" maskUnits="userSpaceOnUse" x="13" y="10" width="150" height="150">
<path d="M163 10H13V160H163V10Z" fill="white"/>
</mask>
<g mask="url(#mask0_17_75)">
<path d="M54.2035 44.986C42.8245 66.4075 32.2525 82.3435 22.759 97.8385C33.5155 80.191 44.272 62.038 54.2035 44.986ZM54.2035 44.986C60.3445 36.7735 65.557 24.1735 69.5425 19.2025C62.395 31.828 58.789 38.23 54.2035 44.986ZM26.893 58.4095C30.0955 51.3715 35.845 44.1985 39.931 36.4945C34.636 46.3375 29.8915 52.405 26.893 58.4095ZM22.369 71.4265C29.647 59.4655 36.6325 45.892 46.144 31.4635C33.112 52.546 27.874 61.1785 22.369 71.4265ZM21.6805 77.998C32.5075 61.1395 41.932 43.7785 51.5905 27.7225C36.433 52.9885 28.876 66.484 21.6805 77.998ZM20.992 84.5695C30.6295 67.2925 41.365 51.766 56.2705 25.27C37.585 55.0735 29.098 69.595 20.992 84.5695ZM21.07 89.8525C35.7085 62.185 53.5555 37.672 61.717 21.529C39.862 57.5335 31.1095 73.4995 21.07 89.8525ZM21.1465 95.134C36.007 69.22 52.1995 41.7715 65.629 20.3665C52.3 44.3035 36.3355 68.9695 21.1465 95.134ZM23.6035 101.833C29.173 91.1785 34.354 81.346 51.9805 54.1345C44.353 66.496 34.1605 84.1495 23.6035 101.833ZM56.5825 46.4005C62.743 36.883 68.539 26.311 73.4545 18.04C66.886 29.0515 61.009 37.72 56.5825 46.4005ZM24.448 105.826C32.4715 94.1335 37.6855 82.9735 52.825 58.129C45.853 70.552 35.632 88.1905 24.448 105.826ZM60.4945 45.238C67.552 36.238 70.3285 27.4885 76.6 18.166C72.8395 24.7255 67.111 34.8325 60.4945 45.238ZM26.0605 108.53C33.994 98.1355 39.673 86.0005 45.2335 76.3015C35.6635 94.1605 31.0405 101.02 26.0605 108.53ZM62.8735 46.6525C68.0065 38.863 72.3385 33.8155 79.7455 18.292C72.1075 31.189 67.309 39.2095 62.8735 46.6525ZM26.905 112.523C30.826 105.844 33.5755 100.223 46.078 80.296C35.9455 97.0435 31.039 105.179 26.905 112.523ZM65.2525 48.067C69.706 39.6895 74.3455 31.0255 82.891 18.418C75.895 28.408 70.1905 38.845 65.2525 48.067ZM28.5175 115.228C36.139 102.454 42.244 91.5265 46.156 85.5775C39.6985 95.2795 33.892 105.799 28.5175 115.228ZM67.63 49.483C75.3055 38.233 81.523 26.6305 86.8045 17.2555C81.76 24.679 74.4085 36.7165 67.63 49.483ZM30.1285 117.932C35.449 107.834 41.5705 96.7975 47.002 89.572C38.0215 105.334 33.529 112.039 30.1285 117.932ZM70.009 50.8975C75.8575 41.899 81.673 29.908 89.95 17.3815C86.1505 25.249 78.4765 38.35 70.009 50.8975ZM31.741 120.637C36.499 111.844 44.302 101.452 47.8465 93.565C43.6195 100.828 38.4025 109.945 31.741 120.637ZM72.388 52.3135C80.623 39.34 86.329 26.398 93.0955 17.5075C85.654 29.2945 78.6475 40.9255 72.388 52.3135ZM34.12 122.051C35.9125 118.888 37.492 116.704 39.4885 113.027C37.237 117.107 35.449 119.581 34.12 122.051ZM41.0215 110.449C43.2295 106.009 46.066 100.826 48.691 97.558C45.7105 101.692 43.7725 106.142 41.0215 110.449ZM76.3 51.1495C81.6355 43.747 85.018 35.563 96.241 17.6335C85.6585 35.665 81.613 43.861 76.3 51.1495ZM35.731 124.756C37.987 121.73 39.748 118.597 41.866 114.443C40.819 116.945 38.272 120.77 35.731 124.756ZM44.167 110.575C45.4105 108.076 46.4185 106.409 50.3035 100.262C47.722 104.279 46.1695 107.528 44.167 110.575ZM79.447 51.2755C88.066 37.4095 93.487 26.278 99.3865 17.7595C88.6555 35.8135 84.142 42.985 79.447 51.2755ZM37.3435 127.46C39.118 125.165 40.468 122.507 43.4785 117.146C40.2055 122.311 39.031 124.853 37.3435 127.46ZM45.7795 113.279C47.173 110.894 48.7645 108.833 51.9145 102.967C48.6355 108.019 47.071 110.965 45.7795 113.279ZM82.5925 51.403C87.148 44.953 92.641 34.357 102.532 17.8855C93.5365 32.4685 88.0675 42.019 82.5925 51.403ZM38.9545 130.165C41.3065 126.074 43.261 122.006 45.8575 118.562C43.8595 122.05 41.6635 126.335 38.9545 130.165ZM48.1585 114.695C48.9955 113.051 51.2095 109.979 54.2935 104.381C52.27 108.038 50.1895 111.539 48.1585 114.695ZM86.5045 50.239C92.9125 40.204 100.182 28.783 104.911 19.3C97.033 31.3525 91.438 40.639 86.5045 50.239ZM41.3335 131.579C42.67 128.747 44.4595 126.236 47.4685 121.267C44.6275 125.882 42.9205 129.07 41.3335 131.579ZM50.536 116.11C52.1725 112.879 54.814 109.907 56.6725 105.797C53.488 110.377 52.1755 113.537 50.536 116.11ZM89.65 50.365C95.3215 39.5515 102.049 28.051 108.057 19.426C99.2275 34.9645 93.7555 42.61 89.65 50.365ZM42.946 134.284C45.3475 130.694 47.065 126.955 49.081 123.971C46.666 128.56 44.575 131.35 42.946 134.284ZM52.1485 118.814C54.2185 115.222 57.2575 110.326 58.2835 108.502C55.1485 114.568 53.707 116.39 52.1485 118.814ZM92.7955 50.491C98.515 42.442 103.974 33.439 110.436 20.842C103.828 33.238 98.449 42.2845 92.7955 50.491ZM45.3235 135.698C47.356 133.054 48.244 130.076 50.692 126.674C49.135 129.061 47.3095 132.535 45.3235 135.698ZM54.5275 120.229C56.9395 116.143 59.8555 112.643 60.6625 109.916C58.8925 112.606 56.7055 116.629 54.5275 120.229ZM95.941 50.617C102.103 43.24 106.987 33.7945 113.581 20.968C109.33 29.5525 101.802 40.0825 95.941 50.617ZM47.7025 137.114C48.892 135.931 49.906 133.697 52.3045 129.379C51.145 131.342 49.378 134.081 47.7025 137.114ZM56.9065 121.645C59.2225 117.121 62.359 113.884 63.0415 111.332C59.725 116.794 58.156 119.123 56.9065 121.645ZM99.0865 50.743C103.993 43.0585 106.959 34.897 115.96 22.3825C110.361 32.107 104.419 41.0005 99.0865 50.743ZM50.0815 138.529C51.1465 135.95 52.8205 134.068 54.6835 130.795C53.053 133.831 51.592 135.968 50.0815 138.529ZM59.284 123.059C60.682 120.086 62.08 117.415 66.187 111.458C63.1885 116.726 61.4605 120.076 59.284 123.059ZM101.466 52.159C104.763 47.1925 109.91 39.283 118.339 23.7985C111.079 37.705 106.491 43.9405 101.466 52.159ZM52.4605 139.945C53.68 137.701 54.8605 135.728 57.061 132.209C55.0795 135.224 54.0355 137.561 52.4605 139.945ZM62.431 123.185C64.5625 118.237 68.344 113.801 69.3325 111.584C66.5545 115.688 64.3705 119.297 62.431 123.185ZM105.379 50.995C109.108 42.49 114.241 34.0135 120.716 25.213C113.689 36.0415 109.407 42.949 105.379 50.995ZM54.8395 141.359C56.4865 138.796 58.318 136.393 59.44 133.625C57.8395 136.339 56.401 138.772 54.8395 141.359ZM64.8085 124.601C67.6885 120.791 70.0525 116.198 71.7115 112.999C68.248 119.042 66.766 121.82 64.8085 124.601ZM110.058 48.544C112.711 42.3475 116.002 37.594 123.096 26.629C120.787 31.6735 115.462 40.1155 110.058 48.544ZM56.4505 144.064C57.9295 141.673 59.5225 138.607 62.5855 133.751C61.4275 135.728 58.8115 140.138 56.4505 144.064ZM67.954 124.727C70.1635 121.432 72.0445 117.362 74.857 113.125C73.033 116.483 70.75 120.811 67.954 124.727ZM114.738 46.0915C118.443 38.3665 122.136 33.0835 126.241 26.755C121.096 34.4455 118.35 40.753 114.738 46.0915ZM59.596 144.19C61.9405 140.947 62.9485 138.877 66.499 132.587C64.1125 136.537 62.035 140.032 59.596 144.19ZM117.883 46.2175C122.045 40.372 126.314 33.208 127.853 29.4595C123.763 35.7115 121.399 40.549 117.883 46.2175ZM61.975 145.604C64.6405 141.514 67.198 135.392 69.6445 132.713C65.722 139.163 63.8095 142.562 61.975 145.604ZM121.795 45.0535C123.844 42.868 124.753 39.418 130.232 30.874C126.914 35.938 124.45 40.0885 121.795 45.0535ZM64.354 147.02C66.7405 144.13 68.3605 140.987 72.0235 134.129C67.597 142.015 65.5735 144.074 64.354 147.02ZM124.942 45.181C127.162 41.395 130.496 36.727 132.61 32.2885C128.732 39.301 126.971 42.4765 124.942 45.181ZM66.733 148.435C68.176 146.119 69.8395 143.348 72.1015 139.411C69.976 142.48 68.3035 145.666 66.733 148.435ZM125.787 49.174C129.139 42.871 133.373 36.8395 134.989 33.7045C130.363 40.813 127.938 45.4105 125.787 49.174ZM126.631 53.167C131.471 46.2325 134.154 40.435 136.601 36.409C131.845 44.113 129.781 48.1735 126.631 53.167ZM124.408 62.317C128.955 55.072 132.707 50.701 138.98 37.8235C132.464 47.317 128.956 54.58 124.408 62.317ZM126.02 65.0215C130.318 56.977 137.339 46.423 140.591 40.528C132.887 54.3835 129.269 59.095 126.02 65.0215ZM127.631 67.726C130.874 61.8865 136.26 53.6185 142.204 43.2325C134.641 55.33 130.909 61.444 127.631 67.726ZM101.634 116.837C102.58 115.195 103.134 113.719 103.935 112.97C103.366 113.896 102.556 115.409 101.634 116.837ZM129.244 70.429C134.827 62.173 141.707 51.9355 144.581 44.647C140.48 52.798 134.826 61.252 129.244 70.429ZM103.246 119.542C105.076 117.283 106.095 114.461 107.848 111.808C105.637 115.361 104.352 117.361 103.246 119.542ZM130.855 73.1335C135.295 63.757 140.45 54.403 146.194 47.3515C140.686 57.199 135.259 64.4425 130.855 73.1335ZM104.857 122.246C106.263 119.692 108.169 117.895 111.76 110.644C109.989 113.17 107.764 117.59 104.857 122.246ZM132.467 75.838C136.901 69.3685 142.8 61.0945 147.805 50.056C139.93 62.6755 136.751 69.5305 132.467 75.838ZM107.236 123.661C109.566 121.447 110.751 117.751 114.139 112.06C111.663 116.585 109.683 119.924 107.236 123.661ZM132.545 81.121C136.709 70.7875 144.938 62.4985 149.417 52.7605C143.609 61.462 138.899 71.482 132.545 81.121ZM107.314 128.944C109.698 123.757 112.457 118.186 118.817 109.607C115.348 114.688 111.58 122.092 107.314 128.944ZM131.089 88.981C135.478 81.511 140.38 74.392 151.03 55.465C139.792 74.3905 135.025 81.0115 131.089 88.981ZM107.392 134.227C122.214 110.665 135.801 87.103 152.641 58.1695C137.667 83.4205 122.775 109.447 107.392 134.227ZM107.47 139.508C117.342 122.854 128.057 104.422 153.485 62.1625C140.788 83.4355 123.706 112.058 107.47 139.508ZM107.548 144.791C119.571 123.509 134.889 99.8035 155.098 64.867C144.28 81.6145 126.075 113.692 107.548 144.791ZM109.159 147.496C127.206 116.977 145.795 88.1635 155.942 68.86C137.926 99.1465 123.495 122.684 109.159 147.496ZM113.073 146.333C126.249 126.388 138.379 105.575 157.555 71.5645C135.756 109.471 123.319 127.835 113.073 146.333ZM116.985 145.169C131.313 122.59 144.907 96.9385 158.399 75.5575C144.614 99.304 130.569 123.068 116.985 145.169ZM120.898 144.007C132.304 124.57 142.954 107.471 156.943 83.419C146.189 101.242 133.07 122.731 120.898 144.007ZM126.345 140.266C130.9 129.698 139.141 120.074 156.254 89.9905C146.983 104.773 136.917 121.834 126.345 140.266ZM131.791 136.523C140.506 123.601 148.787 111.1 156.332 95.272C141.967 117.851 137.393 127.361 131.791 136.523ZM138.004 131.494C140.261 125.764 145.164 119.341 152.575 107C148.861 113.324 143.696 121.619 138.004 131.494Z" stroke="white" stroke-width="1.453" stroke-linecap="round"/>
<path d="M88 16.2505C71.347 15.7375 53.6965 24.394 39.6925 35.6755M88 16.2505C71.5915 14.737 53.617 24.0085 39.6925 35.6755M88 16.2505C105.28 16.111 124.312 22.612 136.308 35.6755M88 16.2505C105.234 17.143 124.911 22.231 136.308 35.6755M39.6925 35.6755C26.8495 47.1505 19.405 65.638 19.2505 83.563M39.6925 35.6755C27.7225 47.284 20.8825 67.102 19.2505 83.563M19.2505 83.563C18.1135 96.5695 22.6495 111.887 32.35 123.176M19.2505 83.563C18.3505 99.271 25.408 111.254 32.35 123.176M32.35 123.176C39.961 134.234 51.5515 143.507 66.25 147.5M32.35 123.176C40.3315 136.103 51.6685 143.404 66.25 147.5M66.25 147.5C68.3935 147.644 71.089 145.309 70.9375 144.25M66.25 147.5C70.7605 146.56 71.848 146.771 70.9375 144.25M70.9375 144.25C70.171 141.249 69.622 137.219 70.9375 132.812M70.9375 144.25C71.1895 141.745 70.585 137.523 70.9375 132.812M70.9375 132.812C50.503 138.176 47.479 122.347 47.7505 123.812M70.9375 132.812C52 138.236 46.2595 125.229 47.7505 123.812M47.7505 123.812C47.764 119.989 42.8635 117.263 40.1245 113.938M47.7505 123.812C47.278 118.992 45.1645 114.955 40.1245 113.938M40.1245 113.938C34.3525 109.78 40.417 110.703 40.6255 109.875M40.1245 113.938C35.146 109.397 40.453 110.547 40.6255 109.875M40.6255 109.875C42.0115 109.981 43.9855 109.827 46.6705 112.14M40.6255 109.875C42.847 110.775 43.8715 112.242 46.6705 112.14M46.6705 112.14C48.238 114.009 50.2075 113.665 51.1255 116.812M46.6705 112.14C48.331 112.18 49.342 115.507 51.1255 116.812M51.1255 116.812C51.589 119.026 57.403 123.556 59.9875 123.684M51.1255 116.812C52.6855 120.529 57.43 122.145 59.9875 123.684M59.9875 123.684C62.311 125.592 67.948 125.081 71.125 122.375M59.9875 123.684C63.2665 124.437 66.7885 122.528 71.125 122.375M71.125 122.375C72.5215 119.737 72.874 115.166 75.5005 113.375M71.125 122.375C69.817 119.996 71.512 115.037 75.5005 113.375M75.5005 113.375C60.1495 112.541 44.179 104.682 44.2495 80.125M75.5005 113.375C60.829 113.161 45.1075 107.128 44.2495 80.125M44.2495 80.125C42.7585 72.6055 47.245 67.804 51.187 61.9375M44.2495 80.125C44.3275 71.7715 48.2965 68.071 51.187 61.9375M51.187 61.9375C47.902 57.5725 48.301 49.033 51.8755 44.188M51.187 61.9375C47.7805 55.8565 50.155 48.1315 51.8755 44.188M51.8755 44.188C51.6715 45.526 57.487 41.6815 70.6255 51.0625M51.8755 44.188C52.405 45.1975 57.58 44.0755 70.6255 51.0625M70.6255 51.0625C82.6 48.196 93.1495 49.0195 105 51.0625M70.6255 51.0625C83.167 47.2105 93.5365 48.6445 105 51.0625M105 51.0625C118.413 41.761 122.295 43.9975 123.75 44.188M105 51.0625C117.441 41.326 122.685 44.638 123.75 44.188M123.75 44.188C126.321 51.139 125.079 56.5795 124.438 61.9375M123.75 44.188C125.329 50.1055 127.87 57.067 124.438 61.9375M124.438 61.9375C130.113 65.5375 131.776 74.632 131.751 80.0005M124.438 61.9375C127.878 65.5705 130.278 72.91 131.751 80.0005M131.751 80.0005C132.54 104.994 116.386 110.331 100.5 113.25M131.751 80.0005C132.274 105.171 115.812 110.136 100.5 113.25M100.5 113.25C100.884 114.676 103.381 116.56 104.247 118.974M100.5 113.25C101.715 114.601 103.846 117.958 104.247 118.974M104.247 118.974C105.975 119.865 104.125 122.975 105.187 125.75M104.247 118.974C104.922 121.722 106.524 123.82 105.187 125.75M105.187 125.75C104.974 129.904 105.358 134.751 105.187 144.187M105.187 125.75C105.064 129.973 105.555 134.419 105.187 144.187M105.187 144.187C105.579 143.979 105.07 149.174 109.875 147.438M105.187 144.187C104.551 142.767 107.485 149.382 109.875 147.438M109.875 147.438C124.51 141.699 136.036 133.612 143.67 123.102M109.875 147.438C122.887 143.184 133.6 134.902 143.67 123.102M143.67 123.102C152.628 110.982 156.192 96.883 156.75 83.563M143.67 123.102C152.902 110.737 157.393 97.636 156.75 83.563M156.75 83.563C157.089 64.1995 147.952 47.548 136.308 35.6755M156.75 83.563C156.016 65.806 149.296 46.6495 136.308 35.6755" stroke="white" stroke-linecap="round"/>
</g>
</svg>
